<svg width="137" height="32" viewBox="0 0 137 32" fill="none" xmlns="http://www.w3.org/2000/svg">
<rect width="32" height="32" rx="3" fill="#F19C38"/>
<path d="M27.7144 15.8373C27.7144 15.9024 27.6927 16.0073 27.6495 16.1519C27.6135 16.2966 27.5594 16.463 27.4873 16.651C27.4225 16.8319 27.3432 17.0272 27.2495 17.2369C27.1558 17.4467 27.0513 17.6456 26.936 17.8337C26.7126 18.2026 26.4783 18.5425 26.2333 18.8536C25.9882 19.1574 25.7216 19.4214 25.4333 19.6456C25.145 19.8626 24.8279 20.0326 24.4819 20.1556C24.1432 20.2713 23.7684 20.3291 23.3576 20.3291C23.0044 20.3291 22.6657 20.2423 22.3414 20.0688C22.0243 19.8952 21.7324 19.6565 21.4657 19.3527C21.199 19.0416 20.9648 18.6727 20.763 18.246C20.5612 17.812 20.4026 17.3346 20.2873 16.8138C20.2153 16.4883 20.154 16.1664 20.1035 15.8481C20.0603 15.5299 20.0207 15.2442 19.9846 14.991C19.9486 14.7378 19.9126 14.5317 19.8765 14.3725C19.8405 14.2134 19.8008 14.1339 19.7576 14.1339C19.6711 14.1339 19.563 14.1989 19.4333 14.3291C19.3108 14.4521 19.163 14.651 18.99 14.9259C18.8171 15.1935 18.6153 15.5407 18.3846 15.9675C18.1612 16.3942 17.9053 16.9042 17.6171 17.4973C17.127 18.5027 16.6837 19.2586 16.2873 19.765C15.8909 20.264 15.4837 20.5136 15.0657 20.5136C14.9071 20.5136 14.7522 20.4847 14.6008 20.4268C14.4495 20.3617 14.3126 20.2821 14.19 20.1881C14.0675 20.0868 13.9594 19.9711 13.8657 19.8409C13.7792 19.7107 13.7108 19.5769 13.6603 19.4395C13.5594 19.1646 13.4621 18.8319 13.3684 18.4413C13.2747 18.0434 13.199 17.5805 13.1414 17.0525C13.0981 16.6619 13.0549 16.2966 13.0117 15.9566C12.9756 15.6094 12.9396 15.3093 12.9035 15.0561C12.8675 14.8029 12.8315 14.6076 12.7954 14.4702C12.7594 14.3255 12.7234 14.2532 12.6873 14.2532C12.6225 14.2532 12.518 14.3255 12.3738 14.4702C12.2369 14.6076 12.0747 14.7885 11.8873 15.0127C11.7071 15.2297 11.5126 15.4792 11.3035 15.7613C11.0945 16.0434 10.8855 16.3328 10.6765 16.6293C10.4747 16.9187 10.2837 17.2044 10.1035 17.4865C9.92336 17.7613 9.77201 18.0073 9.64949 18.2243C9.563 18.3834 9.4585 18.5678 9.33598 18.7776C9.21345 18.9874 9.08733 19.2008 8.9576 19.4178C8.82787 19.6348 8.69814 19.8445 8.56841 20.0471C8.44589 20.2496 8.33418 20.4232 8.23327 20.5678C8.16841 20.6619 8.0603 20.7451 7.90895 20.8174C7.7576 20.8897 7.59544 20.9512 7.42246 21.0018C7.24949 21.0452 7.08012 21.0814 6.91436 21.1103C6.7558 21.132 6.63327 21.1429 6.54679 21.1429C6.3594 21.1429 6.21165 21.0778 6.10354 20.9476C5.99544 20.8174 5.91255 20.6366 5.8549 20.4051C5.79724 20.1664 5.7576 19.8879 5.73598 19.5697C5.72156 19.2442 5.71436 18.8897 5.71436 18.5064C5.71436 18.2098 5.72877 17.8807 5.7576 17.519C5.79363 17.1501 5.83688 16.7668 5.88733 16.3689C5.94499 15.9711 6.00625 15.5733 6.07111 15.1754C6.13598 14.7776 6.20084 14.4015 6.26571 14.0471C6.30174 13.8373 6.33418 13.6203 6.363 13.3961C6.39904 13.1718 6.43147 12.9584 6.4603 12.7559C6.48913 12.5461 6.51075 12.3545 6.52517 12.1809C6.53958 12.0073 6.54679 11.8662 6.54679 11.7577C6.54679 11.5046 6.63327 11.2912 6.80625 11.1176C6.97922 10.944 7.21706 10.8572 7.51976 10.8572C8.48553 10.8572 8.96841 11.4358 8.96841 12.5932C8.96841 12.868 8.93598 13.2044 8.87111 13.6022C8.80625 13.9928 8.72697 14.4015 8.63327 14.8282C8.53958 15.255 8.43868 15.6745 8.33057 16.0868C8.22967 16.4991 8.13598 16.8608 8.04949 17.1718C8.33057 16.7161 8.61526 16.264 8.90354 15.8156C9.19183 15.3599 9.47291 14.9295 9.74679 14.5244C10.0207 14.1194 10.2801 13.7505 10.5252 13.4178C10.7774 13.0778 11.0044 12.7921 11.2062 12.5606C11.8549 11.8301 12.5864 11.4648 13.4008 11.4648C13.6819 11.4648 13.9162 11.5335 14.1035 11.6709C14.2981 11.8084 14.4567 11.9964 14.5792 12.2351C14.709 12.4738 14.8135 12.7523 14.8927 13.0706C14.972 13.3816 15.0369 13.7143 15.0873 14.0688C15.145 14.4232 15.1918 14.7848 15.2279 15.1537C15.2639 15.5226 15.3035 15.8807 15.3468 16.2279C15.3684 16.3942 15.3864 16.5787 15.4008 16.7812C15.4153 16.9765 15.4441 17.1429 15.4873 17.2803C15.5162 17.2369 15.563 17.1501 15.6279 17.0199C15.6999 16.8825 15.7792 16.7197 15.8657 16.5317C15.9594 16.3364 16.0567 16.1266 16.1576 15.9024C16.2585 15.6782 16.3558 15.4612 16.4495 15.2514C16.5504 15.0344 16.6441 14.8355 16.7306 14.6546C16.8171 14.4738 16.8855 14.3328 16.936 14.2315C17.2026 13.7252 17.4585 13.2984 17.7035 12.9512C17.9558 12.5968 18.208 12.3111 18.4603 12.0941C18.7126 11.8698 18.972 11.7071 19.2387 11.6058C19.5053 11.5046 19.7936 11.4539 20.1035 11.4539C20.4279 11.4539 20.6981 11.5118 20.9144 11.6275C21.1378 11.7433 21.3216 11.8988 21.4657 12.0941C21.6099 12.2821 21.7252 12.4991 21.8117 12.7451C21.9053 12.9838 21.9882 13.2297 22.0603 13.4829C22.1108 13.6565 22.1612 13.8915 22.2117 14.1881C22.2693 14.4847 22.3234 14.7848 22.3738 15.0886C22.4315 15.3852 22.4819 15.6601 22.5252 15.9132C22.5684 16.1592 22.6044 16.3219 22.6333 16.4015C22.7126 16.6329 22.7954 16.8499 22.8819 17.0525C22.9684 17.255 23.0585 17.4322 23.1522 17.5841C23.2531 17.7288 23.3576 17.8445 23.4657 17.9313C23.5738 18.0181 23.6891 18.0615 23.8117 18.0615C24.2225 18.0615 24.6801 17.8554 25.1846 17.4431C25.6963 17.0308 26.2333 16.4232 26.7954 15.6203C26.8675 15.519 26.954 15.4467 27.0549 15.4033C27.163 15.3527 27.2675 15.3273 27.3684 15.3273C27.4693 15.3273 27.5522 15.3816 27.6171 15.4901C27.6819 15.5986 27.7144 15.7143 27.7144 15.8373Z" fill="white"/>
<path d="M69.3545 7.95703C69.3545 8.04492 69.3428 8.1123 69.3193 8.15918C69.2959 8.2002 69.2666 8.24707 69.2314 8.2998C69.1963 8.35254 69.1553 8.41992 69.1084 8.50195C69.0674 8.58398 69.0293 8.7041 68.9941 8.8623C68.959 9.02637 68.9238 9.16992 68.8887 9.29297C68.8594 9.41602 68.833 9.5332 68.8096 9.64453C68.7861 9.75586 68.7656 9.87012 68.748 9.9873C68.7363 10.0986 68.7305 10.2305 68.7305 10.3828C68.7305 10.6465 68.7246 10.9072 68.7129 11.165C68.7012 11.4229 68.6836 11.6924 68.6602 11.9736C68.6367 12.249 68.6074 12.5391 68.5723 12.8438C68.543 13.1426 68.5078 13.4678 68.4668 13.8193C68.4082 14.3174 68.3496 14.8447 68.291 15.4014C68.2324 15.958 68.2031 16.5322 68.2031 17.124C68.2031 17.2822 68.2031 17.4668 68.2031 17.6777C68.2031 17.8887 68.2061 18.1143 68.2119 18.3545C68.2236 18.5947 68.2354 18.8408 68.2471 19.0928C68.2646 19.3389 68.2881 19.5791 68.3174 19.8135C68.3467 19.8428 68.3701 19.8633 68.3877 19.875C68.4111 19.8809 68.4434 19.8984 68.4844 19.9277C68.6953 20.0625 68.8477 20.1797 68.9414 20.2793C69.0352 20.3789 69.082 20.5137 69.082 20.6836C69.082 20.8066 69.0439 20.9355 68.9678 21.0703C68.8916 21.2109 68.7891 21.3398 68.6602 21.457C68.5371 21.5742 68.3936 21.6709 68.2295 21.7471C68.0713 21.8232 67.9072 21.8613 67.7373 21.8613C67.3975 21.8613 67.1162 21.7559 66.8936 21.5449C66.6709 21.334 66.4951 21.0645 66.3662 20.7363C66.2432 20.4023 66.1553 20.0332 66.1025 19.6289C66.0557 19.2188 66.0322 18.8145 66.0322 18.416V18.1084C66.0322 17.9443 66.0469 17.6953 66.0762 17.3613C66.1113 17.0273 66.1523 16.6465 66.1992 16.2188C66.252 15.791 66.3076 15.3369 66.3662 14.8564C66.4307 14.376 66.4951 13.9072 66.5596 13.4502C66.6299 12.9873 66.6943 12.5566 66.7529 12.1582C66.8174 11.7598 66.873 11.4316 66.9199 11.1738C66.8496 11.2617 66.75 11.3906 66.6211 11.5605C66.498 11.7246 66.3574 11.9092 66.1992 12.1143C66.0469 12.3193 65.8828 12.5361 65.707 12.7646C65.5371 12.9932 65.3701 13.2188 65.2061 13.4414C65.0479 13.6582 64.8955 13.8633 64.749 14.0566C64.6084 14.25 64.4883 14.4141 64.3887 14.5488C64.166 14.8535 63.9521 15.1553 63.7471 15.4541C63.542 15.7529 63.3281 16.0605 63.1055 16.377C63.0879 16.3945 63.0586 16.4326 63.0176 16.4912C62.9824 16.5498 62.9414 16.6172 62.8945 16.6934C62.8477 16.7637 62.8008 16.834 62.7539 16.9043C62.707 16.9746 62.666 17.0273 62.6309 17.0625C62.2207 17.6133 61.7695 17.959 61.2773 18.0996C60.9609 18 60.7061 17.8916 60.5127 17.7744C60.3252 17.6572 60.1699 17.5312 60.0469 17.3965C59.9238 17.2559 59.8184 17.1035 59.7305 16.9395C59.6484 16.7754 59.5518 16.6025 59.4404 16.4209C59.3232 16.2217 59.2178 16.04 59.124 15.876C59.0303 15.7119 58.9482 15.5654 58.8779 15.4365C58.7256 15.1611 58.582 14.8711 58.4473 14.5664C58.3125 14.2617 58.1865 13.9512 58.0693 13.6348C57.9873 13.3711 57.9141 13.1455 57.8496 12.958C57.791 12.7705 57.7354 12.5947 57.6826 12.4307C57.6299 12.2666 57.5771 12.0996 57.5244 11.9297C57.4717 11.7598 57.4131 11.5605 57.3486 11.332C57.3369 11.373 57.3135 11.4727 57.2783 11.6309C57.2432 11.7891 57.1992 11.9854 57.1465 12.2197C57.0938 12.4541 57.0352 12.7148 56.9707 13.002C56.9062 13.2891 56.8418 13.582 56.7773 13.8809C56.7129 14.1797 56.6484 14.4727 56.584 14.7598C56.5254 15.041 56.4697 15.2959 56.417 15.5244C56.3701 15.7529 56.3291 15.9434 56.2939 16.0957C56.2588 16.2422 56.2383 16.3301 56.2324 16.3594C56.1152 16.8281 56.0566 17.2734 56.0566 17.6953C56.0566 17.7832 56.0537 17.9209 56.0479 18.1084C56.042 18.29 56.0361 18.4863 56.0303 18.6973C56.0303 18.9023 56.0273 19.1016 56.0215 19.2949C56.0156 19.4883 56.0127 19.6377 56.0127 19.7432C56.0127 19.8311 55.9863 19.9395 55.9336 20.0684C55.8809 20.1973 55.8076 20.3203 55.7139 20.4375C55.6201 20.5547 55.5117 20.6572 55.3887 20.7451C55.2656 20.8271 55.1367 20.8682 55.002 20.8682C54.8086 20.8682 54.6416 20.8594 54.501 20.8418C54.3604 20.8242 54.2373 20.7891 54.1318 20.7363C54.0322 20.6836 53.9443 20.6074 53.8682 20.5078C53.792 20.4082 53.7217 20.2793 53.6572 20.1211C53.6338 20.0684 53.6162 20.0127 53.6045 19.9541C53.5928 19.8896 53.5811 19.8105 53.5693 19.7168C53.5635 19.623 53.5576 19.5088 53.5518 19.374C53.5518 19.2334 53.5518 19.0576 53.5518 18.8467C53.5518 18.7822 53.5723 18.6533 53.6133 18.46C53.6602 18.2607 53.7158 18.0234 53.7803 17.748C53.8506 17.4727 53.9268 17.1768 54.0088 16.8604C54.0908 16.5381 54.1729 16.2246 54.2549 15.9199C54.3428 15.6094 54.4219 15.3193 54.4922 15.0498C54.5684 14.7744 54.6299 14.5518 54.6768 14.3818C54.7588 14.0889 54.8438 13.7842 54.9316 13.4678C55.0195 13.1514 55.1045 12.832 55.1865 12.5098C55.2744 12.1875 55.3594 11.8682 55.4414 11.5518C55.5293 11.2295 55.6084 10.9248 55.6787 10.6377C55.7139 10.3447 55.749 10.1309 55.7842 9.99609C55.8193 9.83789 55.8662 9.6709 55.9248 9.49512C55.9834 9.31348 56.0537 9.14941 56.1357 9.00293C56.2236 8.85059 56.3262 8.72461 56.4434 8.625C56.5664 8.52539 56.71 8.47559 56.874 8.47559C57.3486 8.47559 57.7266 8.52832 58.0078 8.63379C58.2949 8.73926 58.5234 8.90332 58.6934 9.12598C58.8691 9.34277 59.0068 9.62402 59.1064 9.96973C59.2061 10.3154 59.3086 10.7314 59.4141 11.2178C59.4434 11.3525 59.4785 11.4727 59.5195 11.5781C59.5605 11.6777 59.6045 11.7891 59.6514 11.9121C59.8506 12.5215 60.0908 13.1279 60.3721 13.7314C60.6592 14.3291 60.9902 14.9209 61.3652 15.5068C61.5176 15.3838 61.6553 15.2285 61.7783 15.041C61.9072 14.8477 62.0479 14.6133 62.2002 14.3379C62.335 14.0977 62.4697 13.8721 62.6045 13.6611C62.7451 13.4443 62.9033 13.2393 63.0791 13.0459C63.1436 12.9756 63.2461 12.8555 63.3867 12.6855C63.5273 12.5098 63.6885 12.3076 63.8701 12.0791C64.0576 11.8447 64.2539 11.5986 64.459 11.3408C64.6641 11.083 64.8574 10.8398 65.0391 10.6113C65.2207 10.377 65.3818 10.1719 65.5225 9.99609C65.6631 9.81445 65.7627 9.68555 65.8213 9.60938C65.8857 9.5332 65.9355 9.47461 65.9707 9.43359C66.0059 9.38672 66.0498 9.33398 66.1025 9.27539C66.167 9.18164 66.2725 9.03809 66.4189 8.84473C66.5654 8.65137 66.7178 8.44629 66.876 8.22949C67.04 8.0127 67.1953 7.80762 67.3418 7.61426C67.4941 7.41504 67.6055 7.26562 67.6758 7.16602C67.7578 7.04297 67.9131 6.98145 68.1416 6.98145C68.2646 6.98145 68.3965 7.01953 68.5371 7.0957C68.6777 7.16602 68.8066 7.25391 68.9238 7.35938C69.0469 7.46484 69.1465 7.57617 69.2227 7.69336C69.3047 7.81055 69.3457 7.91309 69.3457 8.00098L69.3545 7.95703ZM84.252 13.3359C84.252 13.4473 84.2139 13.5674 84.1377 13.6963C84.0674 13.8193 83.9736 13.9453 83.8564 14.0742C83.7451 14.1973 83.6162 14.3203 83.4697 14.4434C83.3232 14.5664 83.1768 14.6807 83.0303 14.7861C82.8838 14.8857 82.7432 14.9736 82.6084 15.0498C82.4795 15.126 82.3711 15.1846 82.2832 15.2256C82.125 15.29 81.9199 15.3516 81.668 15.4102C81.4219 15.4629 81.1611 15.5098 80.8857 15.5508C80.6162 15.5859 80.3525 15.6152 80.0947 15.6387C79.8428 15.6621 79.6289 15.6738 79.4531 15.6738C79.4121 15.6738 79.3535 15.6709 79.2773 15.665C79.207 15.6533 79.1279 15.6387 79.04 15.6211C78.958 15.6035 78.873 15.583 78.7852 15.5596C78.7031 15.5303 78.6328 15.4951 78.5742 15.4541C78.6387 15.5889 78.6738 15.7383 78.6797 15.9023C78.6914 16.0605 78.6973 16.2188 78.6973 16.377C78.6973 16.4883 78.6855 16.6201 78.6621 16.7725C78.6387 16.9248 78.6064 17.0801 78.5654 17.2383C78.5303 17.3965 78.4863 17.5488 78.4336 17.6953C78.3809 17.8418 78.3252 17.9648 78.2666 18.0645C78.1201 18.3164 77.9619 18.5479 77.792 18.7588C77.6279 18.9697 77.4434 19.166 77.2383 19.3477C77.0332 19.5293 76.8018 19.6992 76.5439 19.8574C76.2861 20.0156 75.9873 20.1709 75.6475 20.3232C75.2842 20.4814 74.9209 20.5928 74.5576 20.6572C74.1943 20.7158 73.8193 20.7451 73.4326 20.7451C73.1455 20.7451 72.8906 20.6719 72.668 20.5254C72.4453 20.373 72.2578 20.1709 72.1055 19.9189C71.9531 19.667 71.8359 19.377 71.7539 19.0488C71.6777 18.7207 71.6396 18.3779 71.6396 18.0205C71.6396 17.9326 71.6455 17.8242 71.6572 17.6953C71.6748 17.5605 71.6953 17.4258 71.7188 17.291C71.748 17.1562 71.7773 17.0244 71.8066 16.8955C71.8418 16.7666 71.874 16.6582 71.9033 16.5703C71.9854 16.3242 72.1025 16.043 72.2549 15.7266C72.4131 15.4102 72.5977 15.0879 72.8086 14.7598C73.0195 14.4258 73.2539 14.1006 73.5117 13.7842C73.7695 13.4619 74.042 13.1777 74.3291 12.9316C74.6221 12.6797 74.9238 12.4775 75.2344 12.3252C75.5508 12.1729 75.8672 12.0967 76.1836 12.0967C76.3184 12.0967 76.4268 12.1113 76.5088 12.1406C76.5908 12.1641 76.6582 12.1992 76.7109 12.2461C76.7637 12.2871 76.8105 12.3369 76.8516 12.3955C76.8984 12.4482 76.9482 12.501 77.001 12.5537C77.042 12.542 77.083 12.5332 77.124 12.5273C77.1709 12.5215 77.2178 12.5186 77.2646 12.5186C77.4463 12.5186 77.625 12.5889 77.8008 12.7295C77.9766 12.8701 78.1553 13.0254 78.3369 13.1953C78.4189 13.2715 78.501 13.3506 78.583 13.4326C78.6709 13.5088 78.75 13.5791 78.8203 13.6436C78.8906 13.7021 78.9521 13.752 79.0049 13.793C79.0635 13.8281 79.1045 13.8457 79.1279 13.8457C79.2803 13.8457 79.4443 13.8457 79.6201 13.8457C79.8018 13.8398 79.9834 13.834 80.165 13.8281C80.3525 13.8164 80.5312 13.8018 80.7012 13.7842C80.877 13.7666 81.0352 13.7461 81.1758 13.7227C81.1934 13.7168 81.2695 13.6992 81.4043 13.6699C81.5391 13.6348 81.7002 13.5938 81.8877 13.5469C82.0811 13.4941 82.2891 13.4385 82.5117 13.3799C82.7344 13.3213 82.9395 13.2686 83.127 13.2217C83.3203 13.1689 83.4844 13.1279 83.6191 13.0986C83.7598 13.0635 83.8418 13.0459 83.8652 13.0459C83.9824 13.0459 84.0762 13.0605 84.1465 13.0898C84.2168 13.1191 84.252 13.2012 84.252 13.3359ZM74.1094 19.1982C74.584 19.1982 75.0029 19.0723 75.3662 18.8203C75.7354 18.5684 76.0459 18.2344 76.2979 17.8184C76.5498 17.3965 76.7432 16.9189 76.8779 16.3857C77.0186 15.8467 77.0918 15.293 77.0977 14.7246C77.0566 14.6367 76.9951 14.5459 76.9131 14.4521C76.8369 14.3584 76.749 14.2764 76.6494 14.2061C76.5498 14.1299 76.4473 14.0684 76.3418 14.0215C76.2363 13.9746 76.1396 13.9512 76.0518 13.9512C75.9111 13.9512 75.7588 14.0068 75.5947 14.1182C75.4307 14.2295 75.2783 14.3438 75.1377 14.4609C74.9971 14.5781 74.8564 14.7334 74.7158 14.9268C74.5811 15.1143 74.4551 15.3252 74.3379 15.5596C74.2207 15.7939 74.1123 16.043 74.0127 16.3066C73.9131 16.5645 73.8281 16.8223 73.7578 17.0801C73.6875 17.332 73.6318 17.5781 73.5908 17.8184C73.5557 18.0586 73.5381 18.2725 73.5381 18.46C73.5381 18.5537 73.5527 18.6445 73.582 18.7324C73.6113 18.8203 73.6494 18.8994 73.6963 18.9697C73.749 19.04 73.8105 19.0957 73.8809 19.1367C73.9512 19.1777 74.0273 19.1982 74.1094 19.1982ZM101.628 17.2646C101.628 17.3467 101.596 17.4434 101.531 17.5547C101.467 17.6602 101.388 17.7686 101.294 17.8799C101.2 17.9854 101.098 18.0879 100.986 18.1875C100.881 18.2812 100.781 18.3574 100.688 18.416C100.125 18.7676 99.5742 19.043 99.0352 19.2422C98.502 19.4414 97.9424 19.541 97.3564 19.541C96.9873 19.541 96.6592 19.4648 96.3721 19.3125C96.0908 19.1543 95.8477 18.9287 95.6426 18.6357C95.4375 18.3428 95.2617 17.9854 95.1152 17.5635C94.9746 17.1357 94.8604 16.6553 94.7725 16.1221C94.749 15.9697 94.7227 15.8232 94.6934 15.6826C94.6641 15.542 94.6377 15.4189 94.6143 15.3135C94.5908 15.2021 94.5703 15.1143 94.5527 15.0498C94.5352 14.9854 94.5234 14.9531 94.5176 14.9531C94.3828 14.9531 94.1807 15.1582 93.9111 15.5684C93.6475 15.9727 93.3076 16.541 92.8916 17.2734C92.6572 17.6836 92.4375 18.0527 92.2324 18.3809C92.0273 18.7031 91.8311 18.9756 91.6436 19.1982C91.4561 19.415 91.2744 19.582 91.0986 19.6992C90.9229 19.8164 90.75 19.875 90.5801 19.875C90.3105 19.875 90.0908 19.8311 89.9209 19.7432C89.751 19.6553 89.6162 19.5088 89.5166 19.3037C89.417 19.0986 89.3467 18.8262 89.3057 18.4863C89.2646 18.1465 89.2383 17.7246 89.2266 17.2207C89.2148 16.6348 89.168 16.1807 89.0859 15.8584C89.0098 15.5303 88.9219 15.3662 88.8223 15.3662C88.7812 15.3662 88.708 15.4219 88.6025 15.5332C88.4971 15.6387 88.3711 15.7793 88.2246 15.9551C88.084 16.1309 87.9316 16.3301 87.7676 16.5527C87.6035 16.7754 87.4424 17.001 87.2842 17.2295C87.126 17.458 86.9766 17.6807 86.8359 17.8975C86.6953 18.1143 86.5811 18.3047 86.4932 18.4688C86.4229 18.5977 86.3379 18.7471 86.2383 18.917C86.1387 19.0869 86.0361 19.2598 85.9307 19.4355C85.8252 19.6113 85.7197 19.7812 85.6143 19.9453C85.5088 20.1094 85.415 20.25 85.333 20.3672C85.2275 20.5195 85.0986 20.6367 84.9463 20.7188C84.7998 20.7949 84.6387 20.833 84.4629 20.833C84.1934 20.833 83.9707 20.7715 83.7949 20.6484C83.625 20.5254 83.4902 20.3643 83.3906 20.165C83.2969 19.9658 83.2324 19.7373 83.1973 19.4795C83.1621 19.2217 83.1445 18.9609 83.1445 18.6973C83.1445 18.4688 83.1562 18.2285 83.1797 17.9766C83.2031 17.7188 83.2324 17.458 83.2676 17.1943C83.3086 16.9307 83.3525 16.667 83.3994 16.4033C83.4463 16.1338 83.4932 15.873 83.54 15.6211C83.6221 15.1523 83.6924 14.7246 83.751 14.3379C83.8154 13.9512 83.8477 13.582 83.8477 13.2305C83.8477 13.0254 83.915 12.8525 84.0498 12.7119C84.1904 12.5713 84.3838 12.501 84.6299 12.501C85.415 12.501 85.8076 12.9697 85.8076 13.9072C85.8076 14.0596 85.79 14.2441 85.7549 14.4609C85.7197 14.6719 85.6729 14.9004 85.6143 15.1465C85.5557 15.3867 85.4912 15.6387 85.4209 15.9023C85.3506 16.166 85.2832 16.4268 85.2188 16.6846C85.1543 16.9365 85.0928 17.1797 85.0342 17.4141C84.9814 17.6484 84.9404 17.8594 84.9111 18.0469C84.9229 18.0293 84.9551 17.9736 85.0078 17.8799C85.0605 17.7861 85.1221 17.6748 85.1924 17.5459C85.2686 17.417 85.3477 17.2793 85.4297 17.1328C85.5117 16.9863 85.5879 16.8486 85.6582 16.7197C85.7344 16.585 85.7988 16.4707 85.8516 16.377C85.9102 16.2832 85.9453 16.2246 85.957 16.2012C86.2676 15.709 86.5605 15.2695 86.8359 14.8828C87.1113 14.4961 87.3779 14.1621 87.6357 13.8809C87.9053 13.582 88.1836 13.3594 88.4707 13.2129C88.7637 13.0664 89.0771 12.9932 89.4111 12.9932C89.7041 12.9932 89.9355 13.0811 90.1055 13.2568C90.2812 13.4326 90.4189 13.6523 90.5186 13.916C90.6182 14.1797 90.6885 14.4668 90.7295 14.7773C90.7764 15.0879 90.8145 15.375 90.8438 15.6387C90.8613 15.791 90.8789 15.958 90.8965 16.1396C90.9141 16.3154 90.9287 16.4854 90.9404 16.6494C90.958 16.8135 90.9697 16.9629 90.9756 17.0977C90.9873 17.2324 90.9932 17.335 90.9932 17.4053C90.9932 17.4346 91.002 17.4551 91.0195 17.4668C91.043 17.4727 91.0635 17.4756 91.0811 17.4756C91.1104 17.4756 91.1543 17.4316 91.2129 17.3438C91.2715 17.25 91.3389 17.1328 91.415 16.9922C91.4912 16.8457 91.5703 16.6875 91.6523 16.5176C91.7402 16.3418 91.8252 16.1719 91.9072 16.0078C91.9893 15.8379 92.0654 15.6826 92.1357 15.542C92.2061 15.4014 92.2617 15.2959 92.3027 15.2256C92.4434 14.9971 92.5957 14.7422 92.7598 14.4609C92.9297 14.1797 93.1172 13.916 93.3223 13.6699C93.5273 13.418 93.75 13.207 93.9902 13.0371C94.2363 12.8672 94.5059 12.7822 94.7988 12.7822C95.1328 12.7822 95.3906 12.8438 95.5723 12.9668C95.7539 13.0898 95.8975 13.2744 96.0029 13.5205C96.1143 13.7666 96.208 14.0742 96.2842 14.4434C96.3604 14.8066 96.457 15.2314 96.5742 15.7178C96.7383 16.3975 96.9141 16.9248 97.1016 17.2998C97.2949 17.6748 97.5029 17.8623 97.7256 17.8623C98.1064 17.8623 98.5195 17.8096 98.9648 17.7041C99.416 17.5986 99.9258 17.3848 100.494 17.0625C100.518 17.0508 100.559 17.0303 100.617 17.001C100.682 16.9717 100.749 16.9453 100.819 16.9219C100.89 16.8926 100.957 16.8691 101.021 16.8516C101.086 16.8281 101.133 16.8164 101.162 16.8164C101.209 16.8164 101.259 16.8281 101.312 16.8516C101.364 16.875 101.414 16.9072 101.461 16.9482C101.508 16.9893 101.546 17.0361 101.575 17.0889C101.61 17.1416 101.628 17.2002 101.628 17.2646ZM105.073 13.4414C105.073 13.1836 105.032 13.002 104.95 12.8965C104.874 12.791 104.786 12.7383 104.687 12.7383C104.599 12.7383 104.496 12.791 104.379 12.8965C104.262 13.002 104.139 13.1455 104.01 13.3271C103.887 13.5029 103.761 13.7109 103.632 13.9512C103.509 14.1855 103.392 14.4346 103.28 14.6982C103.175 14.9619 103.084 15.2344 103.008 15.5156C102.938 15.791 102.888 16.0576 102.858 16.3154C103.028 16.1748 103.181 16.0488 103.315 15.9375C103.456 15.8203 103.588 15.6973 103.711 15.5684C103.834 15.4453 103.972 15.2959 104.124 15.1201C104.282 14.9385 104.432 14.751 104.572 14.5576C104.713 14.3643 104.83 14.1709 104.924 13.9775C105.023 13.7842 105.073 13.6055 105.073 13.4414ZM111.894 14.3906C111.894 14.4375 111.876 14.5107 111.841 14.6104C111.806 14.71 111.747 14.8271 111.665 14.9619C111.437 15.3252 111.149 15.7207 110.804 16.1484C110.464 16.5762 110.086 17.0039 109.67 17.4316C109.26 17.8535 108.817 18.2637 108.343 18.6621C107.874 19.0547 107.396 19.4033 106.91 19.708C106.43 20.0127 105.949 20.2588 105.469 20.4463C104.988 20.6279 104.531 20.7188 104.098 20.7188C103.547 20.7188 103.066 20.6426 102.656 20.4902C102.246 20.3379 101.906 20.1182 101.637 19.8311C101.367 19.5381 101.165 19.1836 101.03 18.7676C100.896 18.3457 100.828 17.8682 100.828 17.335C100.828 16.9307 100.857 16.5029 100.916 16.0518C100.98 15.6006 101.095 15.1436 101.259 14.6807C101.423 14.2119 101.643 13.7432 101.918 13.2744C102.199 12.7998 102.557 12.3428 102.99 11.9033C103.324 11.5635 103.685 11.3057 104.071 11.1299C104.458 10.9541 104.827 10.8662 105.179 10.8662C105.243 10.8662 105.325 10.8809 105.425 10.9102C105.524 10.9336 105.624 10.9688 105.724 11.0156C105.823 11.0625 105.92 11.1182 106.014 11.1826C106.107 11.2471 106.184 11.3174 106.242 11.3936C106.43 11.6338 106.57 11.8623 106.664 12.0791C106.758 12.29 106.805 12.5303 106.805 12.7998C106.805 13.2217 106.746 13.6025 106.629 13.9424C106.512 14.2822 106.351 14.6016 106.146 14.9004C105.946 15.1934 105.709 15.4775 105.434 15.7529C105.158 16.0283 104.862 16.3154 104.546 16.6143C104.353 16.7959 104.112 16.9951 103.825 17.2119C103.538 17.4229 103.23 17.6543 102.902 17.9062C102.949 18.0879 103.008 18.2461 103.078 18.3809C103.148 18.5098 103.236 18.6182 103.342 18.7061C103.447 18.7939 103.573 18.8613 103.72 18.9082C103.872 18.9492 104.051 18.9697 104.256 18.9697C104.531 18.9697 104.824 18.9229 105.135 18.8291C105.451 18.7354 105.768 18.6152 106.084 18.4688C106.359 18.3398 106.632 18.1787 106.901 17.9854C107.171 17.7861 107.443 17.5811 107.719 17.3701C107.889 17.2412 108.105 17.0566 108.369 16.8164C108.639 16.5703 108.911 16.3154 109.187 16.0518C109.374 15.876 109.562 15.7061 109.749 15.542C109.937 15.3721 110.136 15.1846 110.347 14.9795L110.812 14.5225C111.152 14.2471 111.428 14.1094 111.639 14.1094C111.75 14.1094 111.82 14.1416 111.85 14.2061C111.879 14.2705 111.894 14.332 111.894 14.3906ZM125.684 14.7158C125.684 14.8271 125.663 14.9502 125.622 15.085C125.581 15.2139 125.528 15.3428 125.464 15.4717C125.405 15.6006 125.338 15.7236 125.262 15.8408C125.191 15.9521 125.124 16.0459 125.06 16.1221C124.872 16.3564 124.661 16.6055 124.427 16.8691C124.198 17.1328 123.958 17.3936 123.706 17.6514C123.454 17.9092 123.196 18.1582 122.933 18.3984C122.669 18.6328 122.405 18.8379 122.142 19.0137C121.937 19.1543 121.737 19.2861 121.544 19.4092C121.356 19.5264 121.16 19.6318 120.955 19.7256C120.756 19.8193 120.542 19.8926 120.313 19.9453C120.091 19.998 119.845 20.0244 119.575 20.0244C119.136 20.0244 118.77 19.9365 118.477 19.7607C118.189 19.585 117.955 19.3506 117.773 19.0576C117.592 18.7646 117.451 18.4307 117.352 18.0557C117.258 17.6748 117.185 17.2793 117.132 16.8691C117.056 16.3125 116.971 15.873 116.877 15.5508C116.783 15.2227 116.669 15.0586 116.534 15.0586C116.417 15.0586 116.303 15.0879 116.191 15.1465C116.08 15.1992 115.939 15.3164 115.77 15.498C115.605 15.6797 115.395 15.9463 115.137 16.2979C114.885 16.6436 114.554 17.1064 114.144 17.6865C114.003 17.8857 113.83 18.1084 113.625 18.3545C113.426 18.6006 113.215 18.8379 112.992 19.0664C112.77 19.2891 112.547 19.4883 112.324 19.6641C112.107 19.834 111.905 19.9512 111.718 20.0156C110.979 19.8516 110.61 19.1455 110.61 17.8975C110.61 17.5811 110.646 17.1152 110.716 16.5C110.751 16.2246 110.789 15.9346 110.83 15.6299C110.877 15.3252 110.933 15.0205 110.997 14.7158C111.067 14.4053 111.149 14.1035 111.243 13.8105C111.337 13.5117 111.445 13.2363 111.568 12.9844C111.639 12.8438 111.718 12.7324 111.806 12.6504C111.894 12.5684 111.981 12.5068 112.069 12.4658C112.163 12.4248 112.26 12.3984 112.359 12.3867C112.459 12.375 112.559 12.3691 112.658 12.3691C112.746 12.3691 112.831 12.3926 112.913 12.4395C112.995 12.4805 113.068 12.542 113.133 12.624C113.197 12.7061 113.247 12.8057 113.282 12.9229C113.323 13.04 113.344 13.1748 113.344 13.3271C113.344 13.4619 113.332 13.5908 113.309 13.7139C113.285 13.8369 113.253 13.9658 113.212 14.1006C113.171 14.2295 113.127 14.3672 113.08 14.5137C113.039 14.6602 112.995 14.8271 112.948 15.0146C112.919 15.1377 112.875 15.2959 112.816 15.4893C112.764 15.6826 112.708 15.8848 112.649 16.0957C112.597 16.3008 112.547 16.5029 112.5 16.7021C112.453 16.9014 112.424 17.0684 112.412 17.2031C112.518 17.0801 112.638 16.9277 112.772 16.7461C112.913 16.5586 113.06 16.3594 113.212 16.1484C113.364 15.9316 113.52 15.7119 113.678 15.4893C113.836 15.2666 113.994 15.0557 114.152 14.8564C114.357 14.5986 114.56 14.3555 114.759 14.127C114.958 13.8984 115.166 13.7021 115.383 13.5381C115.605 13.3682 115.846 13.2363 116.104 13.1426C116.361 13.043 116.651 12.9932 116.974 12.9932C117.354 12.9932 117.665 13.0723 117.905 13.2305C118.146 13.3828 118.336 13.5967 118.477 13.8721C118.623 14.1475 118.731 14.4756 118.802 14.8564C118.872 15.2314 118.928 15.6416 118.969 16.0869C118.992 16.3154 119.021 16.5498 119.057 16.79C119.098 17.0303 119.156 17.25 119.232 17.4492C119.309 17.6426 119.408 17.8037 119.531 17.9326C119.654 18.0557 119.807 18.1172 119.988 18.1172C120.258 18.1172 120.551 18.0469 120.867 17.9062C121.189 17.7598 121.526 17.5605 121.878 17.3086C122.229 17.0566 122.59 16.7637 122.959 16.4297C123.328 16.0957 123.697 15.7383 124.066 15.3574C124.184 15.2344 124.295 15.1143 124.4 14.9971C124.512 14.874 124.617 14.7656 124.717 14.6719C124.816 14.5723 124.913 14.4932 125.007 14.4346C125.101 14.376 125.194 14.3467 125.288 14.3467C125.323 14.3467 125.364 14.3525 125.411 14.3643C125.458 14.3701 125.502 14.3877 125.543 14.417C125.584 14.4404 125.616 14.4756 125.64 14.5225C125.669 14.5693 125.684 14.6338 125.684 14.7158ZM133.4 13.3271C133.4 13.4385 133.377 13.541 133.33 13.6348C133.283 13.7227 133.225 13.8047 133.154 13.8809C133.084 13.9512 133.005 14.0156 132.917 14.0742C132.835 14.1328 132.756 14.1855 132.68 14.2324C132.416 14.3496 132.132 14.4521 131.827 14.54C131.528 14.6279 131.229 14.7041 130.931 14.7686C130.632 14.8271 130.339 14.877 130.052 14.918C129.771 14.959 129.51 14.9941 129.27 15.0234C129.105 15.041 128.933 15.0615 128.751 15.085C128.575 15.1025 128.402 15.1201 128.232 15.1377C128.062 15.1553 127.904 15.1729 127.758 15.1904C127.611 15.208 127.485 15.2256 127.38 15.2432C127.251 15.7412 127.128 16.2188 127.011 16.6758C126.899 17.1328 126.803 17.5635 126.721 17.9678C126.709 18.0381 126.691 18.1348 126.668 18.2578C126.645 18.3809 126.618 18.5156 126.589 18.6621C126.565 18.8086 126.542 18.9639 126.519 19.1279C126.495 19.2861 126.472 19.4385 126.448 19.585C126.431 19.7256 126.416 19.8545 126.404 19.9717C126.393 20.083 126.387 20.168 126.387 20.2266C126.387 20.4316 126.419 20.5781 126.483 20.666C126.548 20.748 126.612 20.8154 126.677 20.8682C126.794 20.9619 126.891 21.0527 126.967 21.1406C127.049 21.2285 127.09 21.3486 127.09 21.501C127.09 21.6182 127.049 21.7266 126.967 21.8262C126.885 21.9316 126.782 22.0225 126.659 22.0986C126.536 22.1748 126.404 22.2363 126.264 22.2832C126.123 22.3301 125.991 22.3535 125.868 22.3535C125.657 22.3535 125.467 22.3008 125.297 22.1953C125.127 22.0957 124.98 21.9609 124.857 21.791C124.734 21.6211 124.641 21.4277 124.576 21.2109C124.512 20.9941 124.479 20.7715 124.479 20.543C124.479 20.1562 124.509 19.7314 124.567 19.2686C124.626 18.8057 124.711 18.3398 124.822 17.8711C124.869 17.666 124.919 17.4404 124.972 17.1943C125.03 16.9482 125.083 16.7139 125.13 16.4912C125.177 16.2686 125.218 16.0723 125.253 15.9023C125.288 15.7266 125.312 15.6094 125.323 15.5508C125.2 15.5566 125.021 15.5742 124.787 15.6035C124.559 15.6328 124.286 15.6475 123.97 15.6475C123.706 15.6475 123.483 15.6328 123.302 15.6035C123.12 15.5684 122.971 15.5068 122.854 15.4189C122.736 15.3311 122.651 15.2109 122.599 15.0586C122.546 14.9062 122.52 14.707 122.52 14.4609C122.52 14.3203 122.569 14.209 122.669 14.127C122.769 14.0391 122.892 13.9746 123.038 13.9336C123.185 13.8867 123.337 13.8574 123.495 13.8457C123.653 13.8281 123.794 13.8193 123.917 13.8193C123.976 13.8193 124.078 13.8135 124.225 13.8018C124.371 13.7842 124.529 13.7695 124.699 13.7578C124.875 13.7402 125.042 13.7256 125.2 13.7139C125.364 13.6963 125.49 13.6875 125.578 13.6875C125.607 13.6875 125.643 13.6318 125.684 13.5205C125.73 13.4092 125.777 13.2656 125.824 13.0898C125.871 12.9141 125.918 12.7207 125.965 12.5098C126.018 12.293 126.067 12.082 126.114 11.877C126.161 11.666 126.202 11.4727 126.237 11.2969C126.278 11.1211 126.311 10.9834 126.334 10.8838C126.398 10.6377 126.451 10.3623 126.492 10.0576C126.539 9.75293 126.606 9.46582 126.694 9.19629C126.782 8.9209 126.905 8.69238 127.063 8.51074C127.228 8.32324 127.459 8.22949 127.758 8.22949C128.074 8.22949 128.309 8.2998 128.461 8.44043C128.613 8.5752 128.689 8.80078 128.689 9.11719C128.689 9.26367 128.675 9.43652 128.646 9.63574C128.622 9.83496 128.578 10.0342 128.514 10.2334C128.373 10.6846 128.253 11.1064 128.153 11.499C128.054 11.8916 127.972 12.2344 127.907 12.5273C127.849 12.8145 127.805 13.04 127.775 13.2041C127.752 13.3682 127.74 13.4502 127.74 13.4502C127.98 13.4502 128.209 13.4502 128.426 13.4502C128.648 13.4443 128.874 13.4385 129.103 13.4326C129.331 13.4209 129.568 13.4062 129.814 13.3887C130.066 13.3711 130.339 13.3447 130.632 13.3096C130.972 13.2686 131.259 13.2275 131.493 13.1865C131.728 13.1455 131.933 13.1074 132.108 13.0723C132.29 13.0371 132.454 13.0078 132.601 12.9844C132.747 12.9609 132.899 12.9492 133.058 12.9492C133.14 12.9492 133.216 12.9727 133.286 13.0195C133.362 13.0605 133.4 13.1631 133.4 13.3271ZM136.169 18.9434C136.169 19.248 136.11 19.5498 135.993 19.8486C135.882 20.1416 135.732 20.4199 135.545 20.6836C135.357 20.9473 135.141 21.1904 134.895 21.4131C134.648 21.6357 134.394 21.8262 134.13 21.9844C133.866 22.1426 133.603 22.2656 133.339 22.3535C133.075 22.4473 132.829 22.4941 132.601 22.4941C132.243 22.4941 131.982 22.4062 131.818 22.2305C131.654 22.0605 131.572 21.8291 131.572 21.5361C131.572 21.3955 131.593 21.2607 131.634 21.1318C131.681 21.0088 131.745 20.9004 131.827 20.8066C131.909 20.707 132.009 20.6309 132.126 20.5781C132.249 20.5195 132.387 20.4902 132.539 20.4902H132.697C132.814 20.4902 132.946 20.4727 133.093 20.4375C133.239 20.4023 133.409 20.3057 133.603 20.1475C133.772 20.0068 133.896 19.8398 133.972 19.6465C134.054 19.4473 134.095 19.2744 134.095 19.1279C134.095 18.999 134.062 18.8789 133.998 18.7676C133.934 18.6504 133.849 18.5361 133.743 18.4248C133.638 18.3135 133.515 18.2051 133.374 18.0996C133.239 17.9883 133.096 17.877 132.943 17.7656C132.744 17.6133 132.542 17.4551 132.337 17.291C132.138 17.1211 131.956 16.9424 131.792 16.7549C131.628 16.5615 131.496 16.3594 131.396 16.1484C131.297 15.9316 131.247 15.7002 131.247 15.4541C131.247 15.208 131.291 14.9502 131.379 14.6807C131.467 14.4111 131.584 14.1445 131.73 13.8809C131.883 13.6172 132.056 13.3682 132.249 13.1338C132.442 12.8994 132.642 12.6914 132.847 12.5098C133.058 12.3281 133.269 12.1846 133.479 12.0791C133.69 11.9736 133.887 11.9209 134.068 11.9209C134.367 11.9209 134.593 11.9941 134.745 12.1406C134.903 12.2871 134.982 12.5215 134.982 12.8438C134.982 12.9961 134.941 13.1543 134.859 13.3184C134.783 13.4766 134.684 13.6348 134.561 13.793C134.443 13.9453 134.309 14.0947 134.156 14.2412C134.01 14.3877 133.866 14.5225 133.726 14.6455C133.603 14.7568 133.485 14.8477 133.374 14.918C133.269 14.9883 133.169 15.0645 133.075 15.1465C133.134 15.252 133.21 15.3604 133.304 15.4717C133.397 15.5771 133.5 15.6826 133.611 15.7881C133.723 15.8877 133.834 15.9844 133.945 16.0781C134.062 16.1719 134.171 16.2598 134.271 16.3418C134.487 16.5176 134.707 16.7021 134.93 16.8955C135.152 17.0889 135.354 17.2939 135.536 17.5107C135.724 17.7217 135.876 17.9473 135.993 18.1875C136.11 18.4219 136.169 18.6738 136.169 18.9434Z" fill="black"/>
</svg>
