<svg width="24" height="24" viewBox="0 0 24 24" fill="none" xmlns="http://www.w3.org/2000/svg">
<path fill-rule="evenodd" clip-rule="evenodd" d="M12 1.50452C9.21523 1.50452 6.54448 2.61082 4.57535 4.57996C2.60622 6.54909 1.5 9.21974 1.5 12.0045V12.6496C1.635 14.9146 4.365 15.3345 6 13.6995C6.53472 13.2243 7.2308 12.9713 7.94586 12.9924C8.66092 13.0134 9.34093 13.3068 9.84677 13.8127C10.3526 14.3185 10.646 14.9986 10.6671 15.7137C10.6881 16.4287 10.4352 17.1248 9.96002 17.6595C8.31002 19.3995 8.775 22.2645 11.16 22.4595H12.06C14.8447 22.4595 17.5155 21.3533 19.4846 19.3842C21.4538 17.4151 22.56 14.7442 22.56 11.9595C22.56 9.1747 21.4538 6.50404 19.4846 4.53491C17.5155 2.56578 14.8447 1.45947 12.06 1.45947L12 1.50452ZM12 21.0045H11.22C11.0213 20.9983 10.8307 20.9241 10.68 20.7945C10.5608 20.671 10.4822 20.5141 10.455 20.3446C10.4072 20.0523 10.4299 19.7526 10.5212 19.4708C10.6126 19.189 10.7698 18.9332 10.98 18.7245C11.7607 17.921 12.1975 16.8448 12.1975 15.7245C12.1975 14.6042 11.7607 13.528 10.98 12.7245C10.5802 12.3245 10.1055 12.0072 9.58301 11.7906C9.06053 11.5741 8.50052 11.4627 7.93497 11.4627C7.36941 11.4627 6.8094 11.5741 6.28693 11.7906C5.76445 12.0072 5.2898 12.3245 4.89001 12.7245C4.72602 12.9162 4.51633 13.0634 4.28036 13.1526C4.0444 13.2417 3.78973 13.2698 3.53998 13.2344C3.41389 13.2103 3.29854 13.1474 3.21002 13.0544C3.10696 12.9335 3.05333 12.7783 3.05997 12.6196V12.0646C3.05997 10.2845 3.58788 8.54437 4.57681 7.06433C5.56575 5.58429 6.97131 4.43076 8.61584 3.74957C10.2604 3.06838 12.07 2.89016 13.8159 3.23743C15.5617 3.58469 17.1653 4.44189 18.424 5.70056C19.6827 6.95923 20.5398 8.56295 20.887 10.3088C21.2343 12.0546 21.0561 13.8641 20.3749 15.5086C19.6937 17.1531 18.5402 18.5588 17.0601 19.5477C15.5801 20.5367 13.84 21.0646 12.06 21.0646L12 21.0045ZM13.5 5.99518C13.5 6.82361 12.8284 7.49518 12 7.49518C11.1716 7.49518 10.5 6.82361 10.5 5.99518C10.5 5.16675 11.1716 4.49518 12 4.49518C12.8284 4.49518 13.5 5.16675 13.5 5.99518ZM18 16.5054C18 17.3339 17.3284 18.0054 16.5 18.0054C15.6716 18.0054 15 17.3339 15 16.5054C15 15.677 15.6716 15.0054 16.5 15.0054C17.3284 15.0054 18 15.677 18 16.5054ZM7.5 9.00616C8.32843 9.00616 9 8.33459 9 7.50616C9 6.67774 8.32843 6.00616 7.5 6.00616C6.67157 6.00616 6 6.67774 6 7.50616C6 8.33459 6.67157 9.00616 7.5 9.00616ZM18 7.50616C18 8.33459 17.3284 9.00616 16.5 9.00616C15.6716 9.00616 15 8.33459 15 7.50616C15 6.67774 15.6716 6.00616 16.5 6.00616C17.3284 6.00616 18 6.67774 18 7.50616ZM19.5001 11.999C19.5001 12.8275 18.8286 13.499 18.0001 13.499C17.1717 13.499 16.5001 12.8275 16.5001 11.999C16.5001 11.1706 17.1717 10.499 18.0001 10.499C18.8286 10.499 19.5001 11.1706 19.5001 11.999Z" fill="#333333"/>
</svg>
