<svg width="20" height="20" viewBox="0 0 20 20" fill="none" xmlns="http://www.w3.org/2000/svg">
<path opacity="0.4" d="M8.13387 11.9723C7.6547 11.494 7.36304 10.844 7.36304 10.1148C7.36304 8.654 8.5397 7.4765 9.9997 7.4765C10.7222 7.4765 11.3872 7.769 11.858 8.24733" stroke="#666666" stroke-width="1.5" stroke-linecap="round" stroke-linejoin="round"/>
<path opacity="0.4" d="M12.5873 10.5824C12.394 11.6574 11.5473 12.5057 10.4731 12.7007" stroke="#666666" stroke-width="1.5" stroke-linecap="round" stroke-linejoin="round"/>
<path d="M5.54543 14.5602C4.22293 13.5219 3.10293 12.0052 2.29126 10.1144C3.11126 8.21525 4.23876 6.69025 5.56959 5.64358C6.89209 4.59691 8.41793 4.02858 9.99959 4.02858C11.5904 4.02858 13.1154 4.60525 14.4463 5.65941" stroke="#666666" stroke-width="1.5" stroke-linecap="round" stroke-linejoin="round"/>
<path d="M16.2063 7.49234C16.7796 8.25401 17.2838 9.13317 17.708 10.114C16.0688 13.9115 13.1721 16.199 9.99965 16.199C9.28048 16.199 8.57132 16.0823 7.88965 15.8548" stroke="#666666" stroke-width="1.5" stroke-linecap="round" stroke-linejoin="round"/>
<path d="M16.5725 3.54134L3.42749 16.6863" stroke="#666666" stroke-width="1.5" stroke-linecap="round" stroke-linejoin="round"/>
</svg>
