<svg width="24" height="24" viewBox="0 0 24 24" fill="none" xmlns="http://www.w3.org/2000/svg">
<path fill-rule="evenodd" clip-rule="evenodd" d="M12 4.93947L21 13.9395V20.2501C21 21.4928 19.9927 22.5001 18.75 22.5001H5.25003C4.00739 22.5001 3.00003 21.4928 3.00003 20.2501V13.9395L12 4.93947Z" fill="#FFA03F"/>
<path fill-rule="evenodd" clip-rule="evenodd" d="M19.5 3.75013V9.00013L16.5 6.00013V3.75013C16.5 3.33592 16.8358 3.00013 17.25 3.00013H18.75C19.1642 3.00013 19.5 3.33592 19.5 3.75013Z" fill="#FFA03F"/>
<path fill-rule="evenodd" clip-rule="evenodd" d="M10.9394 2.25013C11.5252 1.66434 12.4749 1.66435 13.0607 2.25013L23.0304 12.2198C23.3233 12.5127 23.3233 12.9876 23.0304 13.2805C22.7375 13.5734 22.2626 13.5734 21.9697 13.2805L12 3.31079L2.03036 13.2805C1.73747 13.5734 1.26259 13.5734 0.9697 13.2805C0.676807 12.9876 0.676807 12.5127 0.9697 12.2198L10.9394 2.25013Z" fill="#FFA03F"/>
</svg>
