<svg width="18" height="19" viewBox="0 0 18 19" fill="none" xmlns="http://www.w3.org/2000/svg">
<path fill-rule="evenodd" clip-rule="evenodd" d="M8.02953 0.589818C8.58933 0.114836 9.41067 0.114836 9.97047 0.589818L17.4705 6.95345C17.8064 7.23846 18 7.6567 18 8.09722V17.5C18 18.3284 17.3284 19 16.5 19H10.75C10.3358 19 10 18.6642 10 18.25V12H8V18.25C8 18.6642 7.66421 19 7.25 19H1.5C0.671573 19 0 18.3284 0 17.5V8.09722C0 7.6567 0.193637 7.23846 0.529534 6.95345L8.02953 0.589818ZM9 1.73358L1.5 8.09722L1.5 17.5H6.5V11.25C6.5 10.8358 6.83579 10.5 7.25 10.5H10.75C11.1642 10.5 11.5 10.8358 11.5 11.25V17.5H16.5V8.09722L9 1.73358Z" fill="#24292E"/>
</svg>
