<svg width="20" height="16" viewBox="0 0 20 16" fill="none" xmlns="http://www.w3.org/2000/svg">
<path fill-rule="evenodd" clip-rule="evenodd" d="M3 0H12.0801C12.9559 0 13.788 0.382688 14.3579 1.04763L19.7593 7.34921C20.0802 7.7237 20.0802 8.2763 19.7593 8.65079L14.3579 14.9524C13.788 15.6173 12.9559 16 12.0801 16H3C1.34315 16 0 14.6569 0 13V3C0 1.34315 1.34315 0 3 0ZM17.6829 8L12.8394 2.34921C12.6494 2.12756 12.3721 2 12.0801 2H3C2.44772 2 2 2.44772 2 3V13C2 13.5523 2.44772 14 3 14H12.0801C12.3721 14 12.6494 13.8724 12.8394 13.6508L17.6829 8Z" fill="black"/>
</svg>
