<svg width="24" height="24" viewBox="0 0 24 24" fill="none" xmlns="http://www.w3.org/2000/svg">
<path fill-rule="evenodd" clip-rule="evenodd" d="M10.4346 2.61796C10.5314 1.21434 11.8623 0.129897 13.2958 0.488278L13.688 0.586311C14.3816 0.759722 14.999 1.27047 15.205 2.03321C15.5356 3.25722 16.0049 5.80076 15.2992 8.79751C15.5031 8.76961 15.7261 8.74334 15.9635 8.72176C17.0322 8.62461 18.4666 8.61485 19.7373 9.03842C20.5147 9.29755 21.2287 10.0588 21.5365 10.9469C21.8133 11.7455 21.7776 12.6897 21.1856 13.5468C21.2737 13.7244 21.3414 13.9097 21.3931 14.0908C21.5089 14.496 21.5626 14.9416 21.5626 15.3749C21.5626 15.8083 21.5089 16.2539 21.3931 16.6591C21.3354 16.8613 21.2577 17.0687 21.154 17.2647C21.4064 17.8449 21.3137 18.4933 21.1491 18.9871C20.9874 19.4723 20.7183 19.9449 20.4161 20.3384C20.4972 20.5669 20.5314 20.8066 20.5314 21.0351C20.5314 21.494 20.3974 21.9727 20.1513 22.4033C19.6485 23.2831 18.6557 23.9999 17.2501 23.9999V23.2499V22.4999C18.0945 22.4999 18.6017 22.0918 18.8489 21.6591C18.9779 21.4334 19.0314 21.209 19.0314 21.0351C19.0314 20.8547 18.9777 20.7881 18.9698 20.7803L18.4395 20.2499L18.9698 19.7196C19.2723 19.4171 19.5796 18.9523 19.7261 18.5128C19.8821 18.0449 19.7903 17.8508 19.7198 17.7803L19.1895 17.2499L19.7198 16.7196C19.7836 16.6558 19.8762 16.5082 19.9509 16.247C20.0226 15.996 20.0626 15.6916 20.0626 15.3749C20.0626 15.0583 20.0226 14.7539 19.9509 14.5029C19.8762 14.2417 19.7836 14.0941 19.7198 14.0303L19.1895 13.4999L19.7198 12.9696C20.248 12.4414 20.279 11.8992 20.1192 11.4381C19.9372 10.9129 19.5262 10.5492 19.2629 10.4614C18.2837 10.135 17.0931 10.1253 16.0993 10.2156C15.6114 10.26 15.1895 10.3266 14.8906 10.3819C14.7415 10.4095 14.6238 10.4342 14.5448 10.4516C14.5053 10.4603 14.4756 10.4672 14.4565 10.4717L14.4359 10.4766L14.432 10.4775C14.1665 10.5438 13.8858 10.4603 13.6998 10.2595C13.5138 10.0587 13.452 9.77245 13.5386 9.51276C14.579 6.39157 14.0874 3.64804 13.7569 2.42438C13.7117 2.25714 13.5651 2.10175 13.3242 2.04152L12.932 1.94349C12.4721 1.82851 11.9685 2.17776 11.931 2.72122C11.8191 4.34361 11.5727 5.94554 11.2088 6.99554C10.9476 7.74914 10.3034 8.89729 9.35111 9.96148C8.39539 11.0295 7.07332 12.0756 5.43026 12.5238C4.83897 12.6851 4.50012 13.1179 4.50012 13.4994V19.5009C4.50012 19.8911 4.83095 20.2739 5.33018 20.3268C7.26853 20.5324 8.23386 21.1213 9.06615 21.6291C9.08618 21.6413 9.10613 21.6535 9.12601 21.6656C9.53089 21.9123 9.86842 22.1097 10.29 22.2549C10.7055 22.398 11.2341 22.4999 12.0001 22.4999H17.2501V23.2499V23.9999H12.0001C11.0932 23.9999 10.3965 23.878 9.80163 23.6731C9.21277 23.4704 8.7546 23.1958 8.34544 22.9465C8.3216 22.932 8.29781 22.9174 8.27404 22.9029C7.51782 22.4413 6.77624 21.9886 5.172 21.8185C4.02361 21.6967 3.00012 20.7676 3.00012 19.5009V13.4994C3.00012 12.2241 4.02836 11.3514 5.03552 11.0766C6.30889 10.7293 7.39649 9.89637 8.23331 8.96122C9.07354 8.02226 9.60477 7.04304 9.79148 6.50433C10.0905 5.6416 10.3257 4.19536 10.4346 2.61796Z" fill="black"/>
</svg>
