<svg width="92" height="18" viewBox="0 0 92 18" fill="none" xmlns="http://www.w3.org/2000/svg">
<path d="M17.6426 1.50781C17.6426 1.60547 17.6296 1.68034 17.6035 1.73242C17.5775 1.77799 17.5449 1.83008 17.5059 1.88867C17.4668 1.94727 17.4212 2.02214 17.3691 2.11328C17.3236 2.20443 17.2812 2.33789 17.2422 2.51367C17.2031 2.69596 17.1641 2.85547 17.125 2.99219C17.0924 3.12891 17.0632 3.25911 17.0371 3.38281C17.0111 3.50651 16.9883 3.63346 16.9688 3.76367C16.9557 3.88737 16.9492 4.03385 16.9492 4.20312C16.9492 4.49609 16.9427 4.78581 16.9297 5.07227C16.9167 5.35872 16.8971 5.6582 16.8711 5.9707C16.8451 6.27669 16.8125 6.59896 16.7734 6.9375C16.7409 7.26953 16.7018 7.63086 16.6562 8.02148C16.5911 8.57487 16.526 9.16081 16.4609 9.7793C16.3958 10.3978 16.3633 11.0358 16.3633 11.6934C16.3633 11.8691 16.3633 12.0742 16.3633 12.3086C16.3633 12.543 16.3665 12.7936 16.373 13.0605C16.3861 13.3275 16.3991 13.6009 16.4121 13.8809C16.4316 14.1543 16.4577 14.4212 16.4902 14.6816C16.5228 14.7142 16.5488 14.737 16.5684 14.75C16.5944 14.7565 16.6302 14.776 16.6758 14.8086C16.9102 14.9583 17.0794 15.0885 17.1836 15.1992C17.2878 15.3099 17.3398 15.4596 17.3398 15.6484C17.3398 15.7852 17.2975 15.9284 17.2129 16.0781C17.1283 16.2344 17.0143 16.3776 16.8711 16.5078C16.7344 16.638 16.5749 16.7454 16.3926 16.8301C16.2168 16.9147 16.0345 16.957 15.8457 16.957C15.4681 16.957 15.1556 16.8398 14.9082 16.6055C14.6608 16.3711 14.4655 16.0716 14.3223 15.707C14.1855 15.3359 14.0879 14.9258 14.0293 14.4766C13.9772 14.0208 13.9512 13.5716 13.9512 13.1289V12.7871C13.9512 12.6048 13.9674 12.3281 14 11.957C14.0391 11.5859 14.0846 11.1628 14.1367 10.6875C14.1953 10.2122 14.2572 9.70768 14.3223 9.17383C14.3939 8.63997 14.4655 8.11914 14.5371 7.61133C14.6152 7.09701 14.6868 6.61849 14.752 6.17578C14.8236 5.73307 14.8854 5.36849 14.9375 5.08203C14.8594 5.17969 14.7487 5.32292 14.6055 5.51172C14.4688 5.69401 14.3125 5.89909 14.1367 6.12695C13.9674 6.35482 13.7852 6.5957 13.5898 6.84961C13.401 7.10352 13.2155 7.35417 13.0332 7.60156C12.8574 7.84245 12.6882 8.07031 12.5254 8.28516C12.3691 8.5 12.2357 8.68229 12.125 8.83203C11.8776 9.17057 11.64 9.50586 11.4121 9.83789C11.1842 10.1699 10.9466 10.5117 10.6992 10.8633C10.6797 10.8828 10.6471 10.9251 10.6016 10.9902C10.5625 11.0553 10.5169 11.1302 10.4648 11.2148C10.4128 11.293 10.3607 11.3711 10.3086 11.4492C10.2565 11.5273 10.2109 11.5859 10.1719 11.625C9.71615 12.237 9.21484 12.6211 8.66797 12.7773C8.31641 12.6667 8.0332 12.5462 7.81836 12.416C7.61003 12.2858 7.4375 12.1458 7.30078 11.9961C7.16406 11.8398 7.04688 11.6706 6.94922 11.4883C6.85807 11.306 6.75065 11.1139 6.62695 10.9121C6.49674 10.6908 6.37956 10.4889 6.27539 10.3066C6.17122 10.1243 6.08008 9.96159 6.00195 9.81836C5.83268 9.51237 5.67318 9.1901 5.52344 8.85156C5.3737 8.51302 5.23372 8.16797 5.10352 7.81641C5.01237 7.52344 4.93099 7.27279 4.85938 7.06445C4.79427 6.85612 4.73242 6.66081 4.67383 6.47852C4.61523 6.29622 4.55664 6.11068 4.49805 5.92188C4.43945 5.73307 4.37435 5.51172 4.30273 5.25781C4.28971 5.30339 4.26367 5.41406 4.22461 5.58984C4.18555 5.76562 4.13672 5.98372 4.07812 6.24414C4.01953 6.50456 3.95443 6.79427 3.88281 7.11328C3.8112 7.43229 3.73958 7.75781 3.66797 8.08984C3.59635 8.42188 3.52474 8.7474 3.45312 9.06641C3.38802 9.37891 3.32617 9.66211 3.26758 9.91602C3.21549 10.1699 3.16992 10.3815 3.13086 10.5508C3.0918 10.7135 3.06901 10.8112 3.0625 10.8438C2.93229 11.3646 2.86719 11.8594 2.86719 12.3281C2.86719 12.4258 2.86393 12.5788 2.85742 12.7871C2.85091 12.9889 2.8444 13.207 2.83789 13.4414C2.83789 13.6693 2.83464 13.8906 2.82812 14.1055C2.82161 14.3203 2.81836 14.4863 2.81836 14.6035C2.81836 14.7012 2.78906 14.8216 2.73047 14.9648C2.67188 15.1081 2.59049 15.2448 2.48633 15.375C2.38216 15.5052 2.26172 15.6191 2.125 15.7168C1.98828 15.8079 1.84505 15.8535 1.69531 15.8535C1.48047 15.8535 1.29492 15.8438 1.13867 15.8242C0.982422 15.8047 0.845703 15.7656 0.728516 15.707C0.617839 15.6484 0.520182 15.5638 0.435547 15.4531C0.350911 15.3424 0.272786 15.1992 0.201172 15.0234C0.17513 14.9648 0.155599 14.903 0.142578 14.8379C0.129557 14.7663 0.116536 14.6784 0.103516 14.5742C0.0970052 14.4701 0.0904948 14.3431 0.0839844 14.1934C0.0839844 14.0371 0.0839844 13.8418 0.0839844 13.6074C0.0839844 13.5358 0.106771 13.3926 0.152344 13.1777C0.204427 12.9564 0.266276 12.6927 0.337891 12.3867C0.416016 12.0807 0.500651 11.752 0.591797 11.4004C0.682943 11.0423 0.774089 10.694 0.865234 10.3555C0.962891 10.0104 1.05078 9.68815 1.12891 9.38867C1.21354 9.08268 1.2819 8.83529 1.33398 8.64648C1.42513 8.32096 1.51953 7.98242 1.61719 7.63086C1.71484 7.2793 1.80924 6.92448 1.90039 6.56641C1.99805 6.20833 2.09245 5.85352 2.18359 5.50195C2.28125 5.14388 2.36914 4.80534 2.44727 4.48633C2.48633 4.16081 2.52539 3.92318 2.56445 3.77344C2.60352 3.59766 2.6556 3.41211 2.7207 3.2168C2.78581 3.01497 2.86393 2.83268 2.95508 2.66992C3.05273 2.50065 3.16667 2.36068 3.29688 2.25C3.43359 2.13932 3.5931 2.08398 3.77539 2.08398C4.30273 2.08398 4.72266 2.14258 5.03516 2.25977C5.35417 2.37695 5.60807 2.55924 5.79688 2.80664C5.99219 3.04753 6.14518 3.36003 6.25586 3.74414C6.36654 4.12826 6.48047 4.59049 6.59766 5.13086C6.63021 5.2806 6.66927 5.41406 6.71484 5.53125C6.76042 5.64193 6.80924 5.76562 6.86133 5.90234C7.08268 6.57943 7.34961 7.25326 7.66211 7.92383C7.98112 8.58789 8.34896 9.24544 8.76562 9.89648C8.9349 9.75977 9.08789 9.58724 9.22461 9.37891C9.36784 9.16406 9.52409 8.90365 9.69336 8.59766C9.8431 8.33073 9.99284 8.08008 10.1426 7.8457C10.2988 7.60482 10.4746 7.37695 10.6699 7.16211C10.7415 7.08398 10.8555 6.95052 11.0117 6.76172C11.168 6.56641 11.347 6.3418 11.5488 6.08789C11.7572 5.82747 11.9753 5.55404 12.2031 5.26758C12.431 4.98112 12.6458 4.71094 12.8477 4.45703C13.0495 4.19661 13.2285 3.96875 13.3848 3.77344C13.541 3.57161 13.6517 3.42839 13.7168 3.34375C13.7884 3.25911 13.8438 3.19401 13.8828 3.14844C13.9219 3.09635 13.9707 3.03776 14.0293 2.97266C14.1009 2.86849 14.2181 2.70898 14.3809 2.49414C14.5436 2.2793 14.7129 2.05143 14.8887 1.81055C15.071 1.56966 15.2435 1.3418 15.4062 1.12695C15.5755 0.905599 15.6992 0.739583 15.7773 0.628906C15.8685 0.492188 16.041 0.423828 16.2949 0.423828C16.4316 0.423828 16.5781 0.466146 16.7344 0.550781C16.8906 0.628906 17.0339 0.726562 17.1641 0.84375C17.3008 0.960938 17.4115 1.08464 17.4961 1.21484C17.5872 1.34505 17.6328 1.45898 17.6328 1.55664L17.6426 1.50781ZM34.1953 7.48438C34.1953 7.60807 34.153 7.74154 34.0684 7.88477C33.9902 8.02148 33.8861 8.16146 33.7559 8.30469C33.6322 8.44141 33.4889 8.57812 33.3262 8.71484C33.1634 8.85156 33.0007 8.97852 32.8379 9.0957C32.6751 9.20638 32.5189 9.30404 32.3691 9.38867C32.2259 9.47331 32.1055 9.53841 32.0078 9.58398C31.832 9.6556 31.6042 9.72396 31.3242 9.78906C31.0508 9.84766 30.7611 9.89974 30.4551 9.94531C30.1556 9.98438 29.8626 10.0169 29.5762 10.043C29.2962 10.069 29.0586 10.082 28.8633 10.082C28.8177 10.082 28.7526 10.0788 28.668 10.0723C28.5898 10.0592 28.502 10.043 28.4043 10.0234C28.3132 10.0039 28.2188 9.98112 28.1211 9.95508C28.0299 9.92253 27.9518 9.88346 27.8867 9.83789C27.9583 9.98763 27.9974 10.1536 28.0039 10.3359C28.0169 10.5117 28.0234 10.6875 28.0234 10.8633C28.0234 10.987 28.0104 11.1335 27.9844 11.3027C27.9583 11.472 27.9225 11.6445 27.877 11.8203C27.8379 11.9961 27.7891 12.1654 27.7305 12.3281C27.6719 12.4909 27.61 12.6276 27.5449 12.7383C27.3822 13.0182 27.2064 13.2754 27.0176 13.5098C26.8353 13.7441 26.6302 13.9622 26.4023 14.1641C26.1745 14.3659 25.9173 14.5547 25.6309 14.7305C25.3444 14.9062 25.0124 15.0788 24.6348 15.248C24.2311 15.4238 23.8275 15.5475 23.4238 15.6191C23.0202 15.6842 22.6035 15.7168 22.1738 15.7168C21.8548 15.7168 21.5716 15.6354 21.3242 15.4727C21.0768 15.3034 20.8685 15.0788 20.6992 14.7988C20.5299 14.5189 20.3997 14.1966 20.3086 13.832C20.224 13.4674 20.1816 13.0866 20.1816 12.6895C20.1816 12.5918 20.1882 12.4714 20.2012 12.3281C20.2207 12.1784 20.2435 12.0286 20.2695 11.8789C20.3021 11.7292 20.3346 11.5827 20.3672 11.4395C20.4062 11.2962 20.4421 11.1758 20.4746 11.0781C20.5658 10.8047 20.696 10.4922 20.8652 10.1406C21.041 9.78906 21.2461 9.43099 21.4805 9.06641C21.7148 8.69531 21.9753 8.33398 22.2617 7.98242C22.5482 7.62435 22.8509 7.30859 23.1699 7.03516C23.4954 6.75521 23.8307 6.5306 24.1758 6.36133C24.5273 6.19206 24.8789 6.10742 25.2305 6.10742C25.3802 6.10742 25.5007 6.1237 25.5918 6.15625C25.6829 6.18229 25.7578 6.22135 25.8164 6.27344C25.875 6.31901 25.9271 6.37435 25.9727 6.43945C26.0247 6.49805 26.0801 6.55664 26.1387 6.61523C26.1842 6.60221 26.2298 6.59245 26.2754 6.58594C26.3275 6.57943 26.3796 6.57617 26.4316 6.57617C26.6335 6.57617 26.832 6.6543 27.0273 6.81055C27.2227 6.9668 27.4212 7.13932 27.623 7.32812C27.7142 7.41276 27.8053 7.50065 27.8965 7.5918C27.9941 7.67643 28.082 7.75456 28.1602 7.82617C28.2383 7.89128 28.3066 7.94661 28.3652 7.99219C28.4303 8.03125 28.4759 8.05078 28.502 8.05078C28.6712 8.05078 28.8535 8.05078 29.0488 8.05078C29.2507 8.04427 29.4525 8.03776 29.6543 8.03125C29.8626 8.01823 30.0612 8.00195 30.25 7.98242C30.4453 7.96289 30.6211 7.9401 30.7773 7.91406C30.7969 7.90755 30.8815 7.88802 31.0312 7.85547C31.181 7.81641 31.36 7.77083 31.5684 7.71875C31.7832 7.66016 32.0143 7.59831 32.2617 7.5332C32.5091 7.4681 32.737 7.40951 32.9453 7.35742C33.1602 7.29883 33.3424 7.25326 33.4922 7.2207C33.6484 7.18164 33.7396 7.16211 33.7656 7.16211C33.8958 7.16211 34 7.17839 34.0781 7.21094C34.1562 7.24349 34.1953 7.33464 34.1953 7.48438ZM22.9258 13.998C23.4531 13.998 23.9186 13.8581 24.3223 13.5781C24.7324 13.2982 25.0775 12.9271 25.3574 12.4648C25.6374 11.9961 25.8522 11.4655 26.002 10.873C26.1582 10.2741 26.2396 9.65885 26.2461 9.02734C26.2005 8.92969 26.1322 8.82878 26.041 8.72461C25.9564 8.62044 25.8587 8.5293 25.748 8.45117C25.6374 8.36654 25.5234 8.29818 25.4062 8.24609C25.2891 8.19401 25.1816 8.16797 25.084 8.16797C24.9277 8.16797 24.7585 8.22982 24.5762 8.35352C24.3939 8.47721 24.2246 8.60417 24.0684 8.73438C23.9121 8.86458 23.7559 9.03711 23.5996 9.25195C23.4499 9.46029 23.3099 9.69466 23.1797 9.95508C23.0495 10.2155 22.929 10.4922 22.8184 10.7852C22.7077 11.0716 22.6133 11.3581 22.5352 11.6445C22.457 11.9245 22.3952 12.1979 22.3496 12.4648C22.3105 12.7318 22.291 12.9694 22.291 13.1777C22.291 13.2819 22.3073 13.3828 22.3398 13.4805C22.3724 13.5781 22.4147 13.666 22.4668 13.7441C22.5254 13.8223 22.5938 13.8841 22.6719 13.9297C22.75 13.9753 22.8346 13.998 22.9258 13.998ZM53.502 11.8496C53.502 11.9408 53.4661 12.0482 53.3945 12.1719C53.3229 12.2891 53.235 12.4095 53.1309 12.5332C53.0267 12.6504 52.9128 12.7643 52.7891 12.875C52.6719 12.9792 52.5612 13.0638 52.457 13.1289C51.832 13.5195 51.2201 13.8255 50.6211 14.0469C50.0286 14.2682 49.4069 14.3789 48.7559 14.3789C48.3457 14.3789 47.9811 14.2943 47.6621 14.125C47.3496 13.9492 47.0794 13.6986 46.8516 13.373C46.6237 13.0475 46.4284 12.6504 46.2656 12.1816C46.1094 11.7064 45.9824 11.1725 45.8848 10.5801C45.8587 10.4108 45.8294 10.248 45.7969 10.0918C45.7643 9.93555 45.735 9.79883 45.709 9.68164C45.6829 9.55794 45.6602 9.46029 45.6406 9.38867C45.6211 9.31706 45.6081 9.28125 45.6016 9.28125C45.4518 9.28125 45.2272 9.50911 44.9277 9.96484C44.6348 10.4141 44.2572 11.0456 43.7949 11.8594C43.5345 12.3151 43.2904 12.7253 43.0625 13.0898C42.8346 13.4479 42.6165 13.7507 42.4082 13.998C42.1999 14.2389 41.998 14.4245 41.8027 14.5547C41.6074 14.6849 41.4154 14.75 41.2266 14.75C40.9271 14.75 40.6829 14.7012 40.4941 14.6035C40.3053 14.5059 40.1556 14.3431 40.0449 14.1152C39.9342 13.8874 39.8561 13.5846 39.8105 13.207C39.765 12.8294 39.7357 12.3607 39.7227 11.8008C39.7096 11.1497 39.6576 10.6452 39.5664 10.2871C39.4818 9.92253 39.3841 9.74023 39.2734 9.74023C39.2279 9.74023 39.1465 9.80208 39.0293 9.92578C38.9121 10.043 38.7721 10.1992 38.6094 10.3945C38.4531 10.5898 38.2839 10.8112 38.1016 11.0586C37.9193 11.306 37.7402 11.5566 37.5645 11.8105C37.3887 12.0645 37.2227 12.3118 37.0664 12.5527C36.9102 12.7936 36.7832 13.0052 36.6855 13.1875C36.6074 13.3307 36.513 13.4967 36.4023 13.6855C36.2917 13.8743 36.1777 14.0664 36.0605 14.2617C35.9434 14.457 35.8262 14.6458 35.709 14.8281C35.5918 15.0104 35.4876 15.1667 35.3965 15.2969C35.2793 15.4661 35.1361 15.5964 34.9668 15.6875C34.804 15.7721 34.625 15.8145 34.4297 15.8145C34.1302 15.8145 33.8828 15.7461 33.6875 15.6094C33.4987 15.4727 33.349 15.2936 33.2383 15.0723C33.1341 14.8509 33.0625 14.597 33.0234 14.3105C32.9844 14.0241 32.9648 13.7344 32.9648 13.4414C32.9648 13.1875 32.9779 12.9206 33.0039 12.6406C33.0299 12.3542 33.0625 12.0645 33.1016 11.7715C33.1471 11.4785 33.196 11.1855 33.248 10.8926C33.3001 10.5931 33.3522 10.3034 33.4043 10.0234C33.4954 9.5026 33.5736 9.02734 33.6387 8.59766C33.7103 8.16797 33.7461 7.75781 33.7461 7.36719C33.7461 7.13932 33.821 6.94727 33.9707 6.79102C34.127 6.63477 34.3418 6.55664 34.6152 6.55664C35.4876 6.55664 35.9238 7.07747 35.9238 8.11914C35.9238 8.28841 35.9043 8.49349 35.8652 8.73438C35.8262 8.96875 35.7741 9.22266 35.709 9.49609C35.6439 9.76302 35.5723 10.043 35.4941 10.3359C35.416 10.6289 35.3411 10.9186 35.2695 11.2051C35.1979 11.485 35.1296 11.7552 35.0645 12.0156C35.0059 12.276 34.9603 12.5104 34.9277 12.7188C34.9408 12.6992 34.9766 12.6374 35.0352 12.5332C35.0938 12.429 35.1621 12.3053 35.2402 12.1621C35.3249 12.0189 35.4128 11.8659 35.5039 11.7031C35.5951 11.5404 35.6797 11.3874 35.7578 11.2441C35.8424 11.0944 35.9141 10.9674 35.9727 10.8633C36.0378 10.7591 36.0768 10.694 36.0898 10.668C36.4349 10.1211 36.7604 9.63281 37.0664 9.20312C37.3724 8.77344 37.6686 8.40234 37.9551 8.08984C38.2546 7.75781 38.5638 7.51042 38.8828 7.34766C39.2083 7.1849 39.5566 7.10352 39.9277 7.10352C40.2533 7.10352 40.5104 7.20117 40.6992 7.39648C40.8945 7.5918 41.0475 7.83594 41.1582 8.12891C41.2689 8.42188 41.347 8.74089 41.3926 9.08594C41.4447 9.43099 41.487 9.75 41.5195 10.043C41.5391 10.2122 41.5586 10.3978 41.5781 10.5996C41.5977 10.7949 41.6139 10.9837 41.627 11.166C41.6465 11.3483 41.6595 11.5143 41.666 11.6641C41.679 11.8138 41.6855 11.9277 41.6855 12.0059C41.6855 12.0384 41.6953 12.0612 41.7148 12.0742C41.7409 12.0807 41.7637 12.084 41.7832 12.084C41.8158 12.084 41.8646 12.0352 41.9297 11.9375C41.9948 11.8333 42.0697 11.7031 42.1543 11.5469C42.2389 11.3841 42.3268 11.2083 42.418 11.0195C42.5156 10.8242 42.61 10.6354 42.7012 10.4531C42.7923 10.2643 42.877 10.0918 42.9551 9.93555C43.0332 9.7793 43.0951 9.66211 43.1406 9.58398C43.2969 9.33008 43.4661 9.04688 43.6484 8.73438C43.8372 8.42188 44.0456 8.12891 44.2734 7.85547C44.5013 7.57552 44.7487 7.34115 45.0156 7.15234C45.2891 6.96354 45.5885 6.86914 45.9141 6.86914C46.2852 6.86914 46.5716 6.9375 46.7734 7.07422C46.9753 7.21094 47.1348 7.41602 47.252 7.68945C47.3757 7.96289 47.4798 8.30469 47.5645 8.71484C47.6491 9.11849 47.7565 9.59049 47.8867 10.1309C48.069 10.8861 48.2643 11.472 48.4727 11.8887C48.6875 12.3053 48.9186 12.5137 49.166 12.5137C49.5892 12.5137 50.0482 12.4551 50.543 12.3379C51.0443 12.2207 51.6107 11.9831 52.2422 11.625C52.2682 11.612 52.3138 11.5892 52.3789 11.5566C52.4505 11.5241 52.5254 11.4948 52.6035 11.4688C52.6816 11.4362 52.7565 11.4102 52.8281 11.3906C52.8997 11.3646 52.9518 11.3516 52.9844 11.3516C53.0365 11.3516 53.0918 11.3646 53.1504 11.3906C53.209 11.4167 53.2643 11.4525 53.3164 11.498C53.3685 11.5436 53.4108 11.5957 53.4434 11.6543C53.4824 11.7129 53.502 11.778 53.502 11.8496ZM57.3301 7.60156C57.3301 7.3151 57.2845 7.11328 57.1934 6.99609C57.1087 6.87891 57.0111 6.82031 56.9004 6.82031C56.8027 6.82031 56.6888 6.87891 56.5586 6.99609C56.4284 7.11328 56.2917 7.27279 56.1484 7.47461C56.0117 7.66992 55.8717 7.90104 55.7285 8.16797C55.5918 8.42839 55.4616 8.70508 55.3379 8.99805C55.2207 9.29102 55.1198 9.59375 55.0352 9.90625C54.957 10.2122 54.9017 10.5085 54.8691 10.7949C55.0579 10.6387 55.2272 10.4987 55.377 10.375C55.5332 10.2448 55.6797 10.1081 55.8164 9.96484C55.9531 9.82812 56.1061 9.66211 56.2754 9.4668C56.4512 9.26497 56.6172 9.05664 56.7734 8.8418C56.9297 8.62695 57.0599 8.41211 57.1641 8.19727C57.2747 7.98242 57.3301 7.78385 57.3301 7.60156ZM64.9082 8.65625C64.9082 8.70833 64.8887 8.78971 64.8496 8.90039C64.8105 9.01107 64.7454 9.14128 64.6543 9.29102C64.4004 9.69466 64.0814 10.1341 63.6973 10.6094C63.3197 11.0846 62.8997 11.5599 62.4375 12.0352C61.9818 12.5039 61.4902 12.9596 60.9629 13.4023C60.4421 13.8385 59.9115 14.2259 59.3711 14.5645C58.8372 14.903 58.3034 15.1764 57.7695 15.3848C57.2357 15.5866 56.7279 15.6875 56.2461 15.6875C55.6341 15.6875 55.1003 15.6029 54.6445 15.4336C54.1888 15.2643 53.8112 15.0202 53.5117 14.7012C53.2122 14.3757 52.9876 13.9818 52.8379 13.5195C52.6882 13.0508 52.6133 12.5202 52.6133 11.9277C52.6133 11.4785 52.6458 11.0033 52.7109 10.502C52.7826 10.0007 52.9095 9.49284 53.0918 8.97852C53.2741 8.45768 53.5182 7.93685 53.8242 7.41602C54.1367 6.88867 54.5339 6.38086 55.0156 5.89258C55.3867 5.51497 55.7871 5.22852 56.2168 5.0332C56.6465 4.83789 57.0566 4.74023 57.4473 4.74023C57.5189 4.74023 57.61 4.75651 57.7207 4.78906C57.8314 4.8151 57.9421 4.85417 58.0527 4.90625C58.1634 4.95833 58.2708 5.02018 58.375 5.0918C58.4792 5.16341 58.5638 5.24154 58.6289 5.32617C58.8372 5.5931 58.9935 5.84701 59.0977 6.08789C59.2018 6.32227 59.2539 6.58919 59.2539 6.88867C59.2539 7.35742 59.1888 7.7806 59.0586 8.1582C58.9284 8.53581 58.7493 8.89062 58.5215 9.22266C58.3001 9.54818 58.0365 9.86393 57.7305 10.1699C57.4245 10.4759 57.0957 10.7949 56.7441 11.127C56.5293 11.3288 56.2624 11.5501 55.9434 11.791C55.6243 12.0254 55.2826 12.2826 54.918 12.5625C54.9701 12.7643 55.0352 12.9401 55.1133 13.0898C55.1914 13.2331 55.2891 13.3535 55.4062 13.4512C55.5234 13.5488 55.6634 13.6237 55.8262 13.6758C55.9954 13.7214 56.194 13.7441 56.4219 13.7441C56.7279 13.7441 57.0534 13.6921 57.3984 13.5879C57.75 13.4837 58.1016 13.3503 58.4531 13.1875C58.7591 13.0443 59.0618 12.8652 59.3613 12.6504C59.6608 12.429 59.9635 12.2012 60.2695 11.9668C60.4583 11.8236 60.6992 11.6185 60.9922 11.3516C61.2917 11.0781 61.5944 10.7949 61.9004 10.502C62.1087 10.3066 62.3171 10.1178 62.5254 9.93555C62.7337 9.74674 62.9551 9.53841 63.1895 9.31055L63.707 8.80273C64.0846 8.49674 64.3906 8.34375 64.625 8.34375C64.7487 8.34375 64.8268 8.37956 64.8594 8.45117C64.8919 8.52279 64.9082 8.59115 64.9082 8.65625ZM80.2305 9.01758C80.2305 9.14128 80.2077 9.27799 80.1621 9.42773C80.1165 9.57096 80.0579 9.71419 79.9863 9.85742C79.9212 10.0007 79.8464 10.1374 79.7617 10.2676C79.6836 10.3913 79.6087 10.4954 79.5371 10.5801C79.3288 10.8405 79.0944 11.1172 78.834 11.4102C78.5801 11.7031 78.3132 11.9928 78.0332 12.2793C77.7533 12.5658 77.4668 12.8424 77.1738 13.1094C76.8809 13.3698 76.5879 13.5977 76.2949 13.793C76.0671 13.9492 75.8457 14.0957 75.6309 14.2324C75.4225 14.3626 75.2044 14.4798 74.9766 14.584C74.7552 14.6882 74.5176 14.7695 74.2637 14.8281C74.0163 14.8867 73.7428 14.916 73.4434 14.916C72.9551 14.916 72.5482 14.8184 72.2227 14.623C71.9036 14.4277 71.6432 14.1673 71.4414 13.8418C71.2396 13.5163 71.0833 13.1452 70.9727 12.7285C70.8685 12.3053 70.7871 11.8659 70.7285 11.4102C70.6439 10.7917 70.5495 10.3034 70.4453 9.94531C70.3411 9.58073 70.2142 9.39844 70.0645 9.39844C69.9342 9.39844 69.8073 9.43099 69.6836 9.49609C69.5599 9.55469 69.4036 9.6849 69.2148 9.88672C69.0326 10.0885 68.7982 10.3848 68.5117 10.7754C68.2318 11.1595 67.8639 11.6738 67.4082 12.3184C67.252 12.5397 67.0599 12.7871 66.832 13.0605C66.6107 13.334 66.3763 13.5977 66.1289 13.8516C65.8815 14.099 65.6341 14.3203 65.3867 14.5156C65.1458 14.7044 64.9212 14.8346 64.7129 14.9062C63.8926 14.724 63.4824 13.9395 63.4824 12.5527C63.4824 12.2012 63.5215 11.6836 63.5996 11C63.6387 10.694 63.681 10.3717 63.7266 10.0332C63.7786 9.69466 63.8405 9.35612 63.9121 9.01758C63.9902 8.67253 64.0814 8.33724 64.1855 8.01172C64.2897 7.67969 64.4102 7.3737 64.5469 7.09375C64.625 6.9375 64.7129 6.8138 64.8105 6.72266C64.9082 6.63151 65.0059 6.56315 65.1035 6.51758C65.2077 6.47201 65.3151 6.44271 65.4258 6.42969C65.5365 6.41667 65.6471 6.41016 65.7578 6.41016C65.8555 6.41016 65.9499 6.4362 66.041 6.48828C66.1322 6.53385 66.2135 6.60221 66.2852 6.69336C66.3568 6.78451 66.4121 6.89518 66.4512 7.02539C66.4967 7.1556 66.5195 7.30534 66.5195 7.47461C66.5195 7.62435 66.5065 7.76758 66.4805 7.9043C66.4544 8.04102 66.4186 8.18424 66.373 8.33398C66.3275 8.47721 66.2786 8.63021 66.2266 8.79297C66.181 8.95573 66.1322 9.14128 66.0801 9.34961C66.0475 9.48633 65.9987 9.66211 65.9336 9.87695C65.875 10.0918 65.8132 10.3164 65.748 10.5508C65.6895 10.7786 65.6341 11.0033 65.582 11.2246C65.5299 11.446 65.4974 11.6315 65.4844 11.7812C65.6016 11.6445 65.735 11.4753 65.8848 11.2734C66.041 11.0651 66.2038 10.8438 66.373 10.6094C66.5423 10.3685 66.7148 10.1243 66.8906 9.87695C67.0664 9.62956 67.2422 9.39518 67.418 9.17383C67.6458 8.88737 67.8704 8.61719 68.0918 8.36328C68.3132 8.10938 68.5443 7.89128 68.7852 7.70898C69.0326 7.52018 69.2995 7.3737 69.5859 7.26953C69.8724 7.15885 70.1947 7.10352 70.5527 7.10352C70.9759 7.10352 71.321 7.19141 71.5879 7.36719C71.8548 7.53646 72.0664 7.77409 72.2227 8.08008C72.3854 8.38607 72.5059 8.75065 72.584 9.17383C72.6621 9.59049 72.724 10.0462 72.7695 10.541C72.7956 10.7949 72.8281 11.0553 72.8672 11.3223C72.9128 11.5892 72.9779 11.8333 73.0625 12.0547C73.1471 12.2695 73.2578 12.4486 73.3945 12.5918C73.5312 12.7285 73.7005 12.7969 73.9023 12.7969C74.2018 12.7969 74.5273 12.7188 74.8789 12.5625C75.237 12.3997 75.6113 12.1784 76.002 11.8984C76.3926 11.6185 76.793 11.293 77.2031 10.9219C77.6133 10.5508 78.0234 10.1536 78.4336 9.73047C78.5638 9.59375 78.6875 9.46029 78.8047 9.33008C78.9284 9.19336 79.0456 9.07292 79.1562 8.96875C79.2669 8.85807 79.3743 8.77018 79.4785 8.70508C79.5827 8.63997 79.6868 8.60742 79.791 8.60742C79.8301 8.60742 79.8757 8.61393 79.9277 8.62695C79.9798 8.63346 80.0286 8.65299 80.0742 8.68555C80.1198 8.71159 80.1556 8.75065 80.1816 8.80273C80.2142 8.85482 80.2305 8.92643 80.2305 9.01758ZM88.8047 7.47461C88.8047 7.59831 88.7786 7.71224 88.7266 7.81641C88.6745 7.91406 88.6094 8.00521 88.5312 8.08984C88.4531 8.16797 88.3652 8.23958 88.2676 8.30469C88.1764 8.36979 88.0885 8.42839 88.0039 8.48047C87.7109 8.61068 87.3952 8.72461 87.0566 8.82227C86.7246 8.91992 86.3926 9.00456 86.0605 9.07617C85.7285 9.14128 85.403 9.19661 85.084 9.24219C84.7715 9.28776 84.4818 9.32682 84.2148 9.35938C84.0326 9.37891 83.8405 9.40169 83.6387 9.42773C83.4434 9.44727 83.2513 9.4668 83.0625 9.48633C82.8737 9.50586 82.6979 9.52539 82.5352 9.54492C82.3724 9.56445 82.2324 9.58398 82.1152 9.60352C81.972 10.1569 81.8353 10.6875 81.7051 11.1953C81.5814 11.7031 81.474 12.1816 81.3828 12.6309C81.3698 12.709 81.3503 12.8164 81.3242 12.9531C81.2982 13.0898 81.2689 13.2396 81.2363 13.4023C81.2103 13.5651 81.1842 13.7376 81.1582 13.9199C81.1322 14.0957 81.1061 14.265 81.0801 14.4277C81.0605 14.584 81.0443 14.7272 81.0312 14.8574C81.0182 14.9811 81.0117 15.0755 81.0117 15.1406C81.0117 15.3685 81.0475 15.5312 81.1191 15.6289C81.1908 15.7201 81.2624 15.7949 81.334 15.8535C81.4642 15.9577 81.5716 16.0586 81.6562 16.1562C81.7474 16.2539 81.793 16.3874 81.793 16.5566C81.793 16.6868 81.7474 16.8073 81.6562 16.918C81.5651 17.0352 81.4512 17.1361 81.3145 17.2207C81.1777 17.3053 81.0312 17.3737 80.875 17.4258C80.7188 17.4779 80.5723 17.5039 80.4355 17.5039C80.2012 17.5039 79.9896 17.4453 79.8008 17.3281C79.612 17.2174 79.4492 17.0677 79.3125 16.8789C79.1758 16.6901 79.0716 16.4753 79 16.2344C78.9284 15.9935 78.8926 15.7461 78.8926 15.4922C78.8926 15.0625 78.9251 14.5905 78.9902 14.0762C79.0553 13.5618 79.1497 13.0443 79.2734 12.5234C79.3255 12.2956 79.3809 12.0449 79.4395 11.7715C79.5046 11.498 79.5632 11.2376 79.6152 10.9902C79.6673 10.7428 79.7129 10.5247 79.752 10.3359C79.791 10.1406 79.8171 10.0104 79.8301 9.94531C79.6934 9.95182 79.4948 9.97135 79.2344 10.0039C78.9805 10.0365 78.6777 10.0527 78.3262 10.0527C78.0332 10.0527 77.7858 10.0365 77.584 10.0039C77.3822 9.96484 77.2161 9.89648 77.0859 9.79883C76.9557 9.70117 76.8613 9.56771 76.8027 9.39844C76.7441 9.22917 76.7148 9.00781 76.7148 8.73438C76.7148 8.57812 76.7702 8.45443 76.8809 8.36328C76.9915 8.26562 77.1283 8.19401 77.291 8.14844C77.4538 8.09635 77.623 8.0638 77.7988 8.05078C77.9746 8.03125 78.1309 8.02148 78.2676 8.02148C78.3327 8.02148 78.4466 8.01497 78.6094 8.00195C78.7721 7.98242 78.9479 7.96615 79.1367 7.95312C79.332 7.93359 79.5176 7.91732 79.6934 7.9043C79.8757 7.88477 80.0156 7.875 80.1133 7.875C80.1458 7.875 80.1849 7.81315 80.2305 7.68945C80.2826 7.56576 80.3346 7.40625 80.3867 7.21094C80.4388 7.01562 80.4909 6.80078 80.543 6.56641C80.6016 6.32552 80.6569 6.09115 80.709 5.86328C80.7611 5.62891 80.8066 5.41406 80.8457 5.21875C80.8913 5.02344 80.9271 4.87044 80.9531 4.75977C81.0247 4.48633 81.0833 4.18034 81.1289 3.8418C81.181 3.50326 81.2559 3.18424 81.3535 2.88477C81.4512 2.57878 81.5879 2.32487 81.7637 2.12305C81.946 1.91471 82.2031 1.81055 82.5352 1.81055C82.8867 1.81055 83.1471 1.88867 83.3164 2.04492C83.4857 2.19466 83.5703 2.44531 83.5703 2.79688C83.5703 2.95964 83.554 3.15169 83.5215 3.37305C83.4954 3.5944 83.4466 3.81576 83.375 4.03711C83.2188 4.53841 83.0853 5.00716 82.9746 5.44336C82.8639 5.87956 82.7728 6.26042 82.7012 6.58594C82.6361 6.90495 82.5872 7.1556 82.5547 7.33789C82.5286 7.52018 82.5156 7.61133 82.5156 7.61133C82.7826 7.61133 83.0365 7.61133 83.2773 7.61133C83.5247 7.60482 83.7754 7.59831 84.0293 7.5918C84.2832 7.57878 84.5469 7.5625 84.8203 7.54297C85.1003 7.52344 85.403 7.49414 85.7285 7.45508C86.1061 7.40951 86.4251 7.36393 86.6855 7.31836C86.946 7.27279 87.1738 7.23047 87.3691 7.19141C87.571 7.15234 87.7533 7.11979 87.916 7.09375C88.0788 7.06771 88.248 7.05469 88.4238 7.05469C88.515 7.05469 88.5996 7.08073 88.6777 7.13281C88.7624 7.17839 88.8047 7.29232 88.8047 7.47461ZM91.8809 13.7148C91.8809 14.0534 91.8158 14.3887 91.6855 14.7207C91.5618 15.0462 91.3958 15.3555 91.1875 15.6484C90.9792 15.9414 90.7383 16.2116 90.4648 16.459C90.1914 16.7064 89.9082 16.918 89.6152 17.0938C89.3223 17.2695 89.0293 17.4062 88.7363 17.5039C88.4434 17.6081 88.1699 17.6602 87.916 17.6602C87.5189 17.6602 87.2292 17.5625 87.0469 17.3672C86.8646 17.1784 86.7734 16.9212 86.7734 16.5957C86.7734 16.4395 86.7962 16.2897 86.8418 16.1465C86.8939 16.0098 86.9655 15.8893 87.0566 15.7852C87.1478 15.6745 87.2585 15.5898 87.3887 15.5312C87.5254 15.4661 87.6784 15.4336 87.8477 15.4336H88.0234C88.1536 15.4336 88.3001 15.4141 88.4629 15.375C88.6257 15.3359 88.8145 15.2285 89.0293 15.0527C89.2181 14.8965 89.3548 14.7109 89.4395 14.4961C89.5306 14.2747 89.5762 14.0827 89.5762 13.9199C89.5762 13.7767 89.5404 13.6432 89.4688 13.5195C89.3971 13.3893 89.3027 13.2624 89.1855 13.1387C89.0684 13.015 88.9316 12.8945 88.7754 12.7773C88.6257 12.6536 88.4661 12.5299 88.2969 12.4062C88.0755 12.237 87.8509 12.0612 87.623 11.8789C87.4017 11.6901 87.1999 11.4915 87.0176 11.2832C86.8353 11.0684 86.6888 10.8438 86.5781 10.6094C86.4674 10.3685 86.4121 10.1113 86.4121 9.83789C86.4121 9.56445 86.4609 9.27799 86.5586 8.97852C86.6562 8.67904 86.7865 8.38281 86.9492 8.08984C87.1185 7.79688 87.3105 7.52018 87.5254 7.25977C87.7402 6.99935 87.9616 6.76823 88.1895 6.56641C88.4238 6.36458 88.6582 6.20508 88.8926 6.08789C89.127 5.9707 89.3451 5.91211 89.5469 5.91211C89.8789 5.91211 90.1296 5.99349 90.2988 6.15625C90.4746 6.31901 90.5625 6.57943 90.5625 6.9375C90.5625 7.10677 90.5169 7.28255 90.4258 7.46484C90.3411 7.64062 90.2305 7.81641 90.0938 7.99219C89.9635 8.16146 89.8138 8.32747 89.6445 8.49023C89.4818 8.65299 89.3223 8.80273 89.166 8.93945C89.0293 9.06315 88.8991 9.16406 88.7754 9.24219C88.6582 9.32031 88.5475 9.40495 88.4434 9.49609C88.5085 9.61328 88.5931 9.73372 88.6973 9.85742C88.8014 9.97461 88.9154 10.0918 89.0391 10.209C89.1628 10.3197 89.2865 10.4271 89.4102 10.5312C89.5404 10.6354 89.6608 10.7331 89.7715 10.8242C90.0124 11.0195 90.2565 11.2246 90.5039 11.4395C90.7513 11.6543 90.9759 11.8822 91.1777 12.123C91.3861 12.3574 91.5553 12.6081 91.6855 12.875C91.8158 13.1354 91.8809 13.4154 91.8809 13.7148Z" fill="black"/>
</svg>
