<svg width="99" height="124" viewBox="0 0 99 124" fill="none" xmlns="http://www.w3.org/2000/svg">
<rect width="99" height="99" rx="7" fill="#F19C38"/>
<path d="M85.7411 48.9965C85.7411 49.1979 85.6742 49.5224 85.5404 49.9699C85.4289 50.4175 85.2617 50.9322 85.0387 51.514C84.838 52.0735 84.5927 52.6777 84.3029 53.3266C84.013 53.9756 83.6897 54.591 83.3329 55.1728C82.6417 56.3141 81.9171 57.3658 81.159 58.3281C80.4009 59.268 79.5759 60.0848 78.684 60.7785C77.7921 61.4498 76.811 61.9757 75.7407 62.3561C74.6927 62.7142 73.5333 62.8932 72.2623 62.8932C71.1698 62.8932 70.1218 62.6247 69.1184 62.0876C68.1373 61.5505 67.2343 60.812 66.4093 59.8722C65.5843 58.9099 64.8596 57.7686 64.2353 56.4484C63.611 55.1057 63.1204 53.6287 62.7637 52.0175C62.5407 51.0105 62.3512 50.0147 62.1951 49.0301C62.0613 48.0454 61.9387 47.1615 61.8272 46.3783C61.7157 45.595 61.6042 44.9573 61.4927 44.465C61.3813 43.9726 61.2586 43.7265 61.1248 43.7265C60.8573 43.7265 60.5228 43.9279 60.1215 44.3307C59.7424 44.7111 59.2853 45.3265 58.7502 46.1769C58.215 47.0049 57.5907 48.079 56.8772 49.3993C56.186 50.7196 55.3944 52.2972 54.5025 54.1322C52.9863 57.2428 51.615 59.5813 50.3887 61.1477C49.1623 62.6918 47.9025 63.4638 46.6093 63.4638C46.1188 63.4638 45.6394 63.3743 45.1711 63.1953C44.7029 62.9939 44.2792 62.7477 43.9002 62.4568C43.5211 62.1435 43.1867 61.7855 42.8968 61.3827C42.6292 60.9799 42.4174 60.5659 42.2613 60.1407C41.9492 59.2903 41.6482 58.261 41.3583 57.0526C41.0684 55.8218 40.8343 54.3896 40.6559 52.756C40.5221 51.5476 40.3884 50.4175 40.2546 49.3657C40.1431 48.2916 40.0316 47.3629 39.9201 46.5797C39.8086 45.7965 39.6971 45.1922 39.5857 44.7671C39.4742 44.3195 39.3627 44.0957 39.2512 44.0957C39.0505 44.0957 38.7272 44.3195 38.2813 44.7671C37.8576 45.1922 37.3559 45.7517 36.7762 46.4454C36.2188 47.1167 35.6167 47.8888 34.9701 48.7615C34.3235 49.6343 33.6769 50.5294 33.0302 51.4469C32.4059 52.342 31.815 53.2259 31.2576 54.0987C30.7002 54.949 30.2319 55.7099 29.8529 56.3812C29.5853 56.8735 29.262 57.4442 28.8829 58.0931C28.5039 58.7421 28.1137 59.4022 27.7123 60.0736C27.311 60.7449 26.9096 61.3939 26.5083 62.0205C26.1292 62.647 25.7836 63.1841 25.4715 63.6317C25.2708 63.9226 24.9363 64.1799 24.4681 64.4037C23.9998 64.6275 23.4982 64.8177 22.963 64.9743C22.4279 65.1086 21.9039 65.2205 21.3911 65.31C20.9005 65.3771 20.5215 65.4107 20.2539 65.4107C19.6742 65.4107 19.2171 65.2093 18.8826 64.8065C18.5482 64.4037 18.2917 63.8443 18.1134 63.1282C17.935 62.3897 17.8123 61.5281 17.7455 60.5435C17.7009 59.5365 17.6786 58.44 17.6786 57.254C17.6786 56.3365 17.7232 55.3183 17.8123 54.1994C17.9238 53.0581 18.0576 51.8721 18.2137 50.6413C18.3921 49.4105 18.5816 48.1797 18.7823 46.9489C18.983 45.7181 19.1836 44.5545 19.3843 43.458C19.4958 42.809 19.5961 42.1377 19.6853 41.4439C19.7968 40.7502 19.8971 40.0901 19.9863 39.4635C20.0755 38.8145 20.1424 38.2215 20.187 37.6844C20.2316 37.1474 20.2539 36.711 20.2539 36.3753C20.2539 35.5921 20.5215 34.932 21.0566 34.3949C21.5917 33.8578 22.3275 33.5893 23.264 33.5893C26.2519 33.5893 27.7458 35.3795 27.7458 38.96C27.7458 39.8104 27.6454 40.8509 27.4448 42.0817C27.2441 43.2901 26.9988 44.5545 26.709 45.8748C26.4191 47.1951 26.1069 48.493 25.7725 49.7685C25.4603 51.0441 25.1705 52.163 24.9029 53.1252C25.7725 51.7154 26.6532 50.3168 27.5451 48.9294C28.437 47.5196 29.3066 46.1881 30.1539 44.9349C31.0012 43.6817 31.8039 42.5405 32.562 41.5111C33.3424 40.4593 34.0448 39.5754 34.6691 38.8593C36.6759 36.5991 38.939 35.469 41.4586 35.469C42.3282 35.469 43.0529 35.6816 43.6326 36.1068C44.2346 36.532 44.7252 37.1138 45.1042 37.8523C45.5056 38.5908 45.8289 39.4523 46.0742 40.4369C46.3194 41.3992 46.5201 42.4286 46.6762 43.5251C46.8546 44.6216 46.9995 45.7405 47.111 46.8818C47.2225 48.0231 47.3451 49.1308 47.4789 50.2049C47.5458 50.7196 47.6015 51.2902 47.6461 51.9168C47.6907 52.521 47.7799 53.0357 47.9137 53.4609C48.0029 53.3266 48.1478 53.0581 48.3485 52.6553C48.5715 52.2301 48.8167 51.7266 49.0843 51.1448C49.3742 50.5406 49.6752 49.8916 49.9873 49.1979C50.2995 48.5042 50.6005 47.8328 50.8904 47.1839C51.2025 46.5125 51.4924 45.8972 51.76 45.3377C52.0275 44.7783 52.2394 44.3419 52.3955 44.0286C53.2204 42.4621 54.012 41.1418 54.7701 40.0677C55.5505 38.9712 56.3309 38.0873 57.1113 37.4159C57.8917 36.7222 58.6944 36.2187 59.5194 35.9054C60.3444 35.5921 61.2363 35.4355 62.1951 35.4355C63.1985 35.4355 64.0346 35.6145 64.7036 35.9725C65.3948 36.3306 65.9634 36.8117 66.4093 37.4159C66.8552 37.9977 67.212 38.6691 67.4796 39.4299C67.7694 40.1684 68.0259 40.9293 68.2488 41.7125C68.4049 42.2495 68.561 42.9768 68.7171 43.8943C68.8955 44.8118 69.0627 45.7405 69.2188 46.6804C69.3971 47.5979 69.5532 48.4482 69.687 49.2315C69.8208 49.9923 69.9323 50.4958 70.0215 50.742C70.2667 51.4581 70.5232 52.1294 70.7907 52.756C71.0583 53.3826 71.337 53.9308 71.6269 54.4008C71.939 54.8483 72.2623 55.2064 72.5968 55.4749C72.9313 55.7434 73.288 55.8777 73.6671 55.8777C74.938 55.8777 76.3539 55.2399 77.9147 53.9644C79.4978 52.6889 81.159 50.8091 82.8981 48.3252C83.1211 48.0119 83.3887 47.7881 83.7009 47.6538C84.0353 47.4972 84.3586 47.4189 84.6708 47.4189C84.9829 47.4189 85.2394 47.5867 85.44 47.9224C85.6407 48.258 85.7411 48.6161 85.7411 48.9965Z" fill="white"/>
<path d="M35.4785 113.916C35.4785 113.951 35.4707 113.996 35.4551 114.051C35.4434 114.105 35.4258 114.164 35.4023 114.227C35.3828 114.289 35.3574 114.354 35.3262 114.42C35.2988 114.482 35.2676 114.539 35.2324 114.59C35.166 114.691 35.0781 114.809 34.9688 114.941C34.8633 115.074 34.7461 115.213 34.6172 115.357C34.4883 115.498 34.3496 115.641 34.2012 115.785C34.0566 115.926 33.9141 116.055 33.7734 116.172C33.6602 116.266 33.5293 116.369 33.3809 116.482C33.2324 116.596 33.0762 116.701 32.9121 116.799C32.748 116.896 32.5801 116.979 32.4082 117.045C32.2363 117.107 32.0742 117.139 31.9219 117.139C31.7852 117.139 31.6602 117.119 31.5469 117.08C31.4375 117.041 31.3359 116.969 31.2422 116.863C31.1523 116.754 31.0723 116.605 31.002 116.418C30.9316 116.23 30.8711 115.988 30.8203 115.691C30.7969 115.566 30.7754 115.434 30.7559 115.293C30.7402 115.148 30.7227 115.006 30.7031 114.865C30.6875 114.725 30.6719 114.59 30.6562 114.461C30.6406 114.328 30.6211 114.213 30.5977 114.115C30.5781 114.014 30.5547 113.934 30.5273 113.875C30.5039 113.816 30.4766 113.787 30.4453 113.787C30.3945 113.787 30.3223 113.83 30.2285 113.916C30.1387 114.002 30.0312 114.127 29.9062 114.291C29.7852 114.451 29.6504 114.645 29.502 114.871C29.3574 115.098 29.2051 115.352 29.0449 115.633C28.7285 116.195 28.4609 116.623 28.2422 116.916C28.0234 117.209 27.8242 117.355 27.6445 117.355C27.375 117.355 27.1934 117.229 27.0996 116.975C27.0137 116.717 26.9609 116.285 26.9414 115.68C26.9297 115.09 26.8867 114.637 26.8125 114.32C26.7422 114 26.6504 113.84 26.5371 113.84C26.4668 113.84 26.3633 113.904 26.2266 114.033C26.0938 114.158 25.9414 114.332 25.7695 114.555C25.6016 114.777 25.418 115.041 25.2188 115.346C25.0195 115.646 24.8203 115.975 24.6211 116.33C24.5664 116.424 24.5039 116.531 24.4336 116.652C24.3633 116.773 24.291 116.896 24.2168 117.021C24.1465 117.143 24.0762 117.258 24.0059 117.367C23.9395 117.477 23.8809 117.566 23.8301 117.637C23.7168 117.801 23.5801 117.883 23.4199 117.883C23.123 117.883 22.9277 117.73 22.834 117.426C22.8105 117.348 22.791 117.285 22.7754 117.238C22.7637 117.188 22.7539 117.139 22.7461 117.092C22.7383 117.041 22.7324 116.986 22.7285 116.928C22.7285 116.869 22.7285 116.793 22.7285 116.699C22.7285 116.543 22.7324 116.4 22.7402 116.271C22.752 116.139 22.7656 116.006 22.7812 115.873C22.7969 115.74 22.8164 115.598 22.8398 115.445C22.8633 115.293 22.8867 115.115 22.9102 114.912C22.9297 114.744 22.9473 114.564 22.9629 114.373C22.9785 114.182 22.9922 113.996 23.0039 113.816C23.0195 113.633 23.0332 113.465 23.0449 113.312C23.0605 113.16 23.0801 113.039 23.1035 112.949C23.1152 112.902 23.1426 112.848 23.1855 112.785C23.2285 112.723 23.2773 112.664 23.332 112.609C23.3906 112.551 23.4512 112.502 23.5137 112.463C23.5762 112.42 23.6309 112.398 23.6777 112.398C23.7598 112.398 23.8262 112.418 23.877 112.457C23.9316 112.492 23.9746 112.541 24.0059 112.604C24.041 112.666 24.0645 112.74 24.0762 112.826C24.0918 112.908 24.0996 112.994 24.0996 113.084C24.0996 113.178 24.0898 113.295 24.0703 113.436C24.0547 113.576 24.0332 113.729 24.0059 113.893C23.9785 114.057 23.9473 114.227 23.9121 114.402C23.8809 114.578 23.8496 114.746 23.8184 114.906C23.7871 115.066 23.7578 115.215 23.7305 115.352C23.707 115.484 23.6895 115.594 23.6777 115.68C23.6426 115.895 23.6191 116.066 23.6074 116.195C23.5957 116.32 23.5898 116.422 23.5898 116.5C23.6406 116.449 23.7051 116.373 23.7832 116.271C23.8613 116.17 23.9473 116.051 24.041 115.914C24.1348 115.777 24.2324 115.627 24.334 115.463C24.4395 115.299 24.5449 115.131 24.6504 114.959C24.7246 114.838 24.8066 114.701 24.8965 114.549C24.9902 114.396 25.0859 114.244 25.1836 114.092C25.2852 113.936 25.3848 113.789 25.4824 113.652C25.5801 113.516 25.6699 113.4 25.752 113.307C25.916 113.119 26.0859 112.977 26.2617 112.879C26.4375 112.781 26.6211 112.732 26.8125 112.732C27 112.732 27.1621 112.807 27.2988 112.955C27.4395 113.1 27.5332 113.289 27.5801 113.523C27.6035 113.633 27.6211 113.76 27.6328 113.904C27.6484 114.045 27.6621 114.193 27.6738 114.35C27.6855 114.506 27.6953 114.662 27.7031 114.818C27.7148 114.975 27.7266 115.123 27.7383 115.264C27.75 115.4 27.7656 115.514 27.7852 115.604C27.8086 115.693 27.832 115.766 27.8555 115.82C27.8789 115.871 27.9004 115.908 27.9199 115.932C27.9395 115.951 27.9551 115.961 27.9668 115.961C28.041 115.961 28.166 115.807 28.3418 115.498C28.4316 115.342 28.5312 115.168 28.6406 114.977C28.75 114.785 28.8711 114.574 29.0039 114.344C29.1367 114.117 29.2793 113.898 29.4316 113.688C29.584 113.477 29.7324 113.291 29.877 113.131C30.0254 112.967 30.1641 112.838 30.293 112.744C30.4219 112.646 30.5312 112.598 30.6211 112.598C30.6797 112.598 30.7402 112.604 30.8027 112.615C30.8652 112.627 30.9258 112.645 30.9844 112.668C31.043 112.691 31.0938 112.721 31.1367 112.756C31.1836 112.787 31.2188 112.822 31.2422 112.861C31.3008 112.955 31.3418 113.062 31.3652 113.184C31.3926 113.301 31.4121 113.438 31.4238 113.594C31.4355 113.746 31.4453 113.918 31.4531 114.109C31.4648 114.297 31.4824 114.506 31.5059 114.736C31.5605 115.225 31.6445 115.59 31.7578 115.832C31.875 116.07 32.041 116.189 32.2559 116.189C32.3379 116.189 32.4414 116.162 32.5664 116.107C32.6914 116.053 32.8242 115.982 32.9648 115.896C33.1055 115.807 33.248 115.707 33.3926 115.598C33.5371 115.484 33.6719 115.373 33.7969 115.264C33.9219 115.154 34.041 115.045 34.1543 114.936C34.2715 114.822 34.3887 114.709 34.5059 114.596C34.623 114.479 34.7422 114.357 34.8633 114.232C34.9883 114.107 35.1211 113.975 35.2617 113.834C35.3086 113.787 35.3516 113.764 35.3906 113.764C35.4492 113.764 35.4785 113.814 35.4785 113.916ZM42.7207 112.832C42.7207 112.898 42.6973 112.971 42.6504 113.049C42.6035 113.127 42.543 113.207 42.4688 113.289C42.3945 113.367 42.3105 113.445 42.2168 113.523C42.123 113.598 42.0293 113.668 41.9355 113.734C41.8418 113.797 41.752 113.854 41.666 113.904C41.584 113.951 41.5156 113.986 41.4609 114.01C41.3594 114.053 41.2246 114.092 41.0566 114.127C40.8926 114.158 40.7207 114.186 40.541 114.209C40.3613 114.232 40.1855 114.252 40.0137 114.268C39.8418 114.279 39.6973 114.285 39.5801 114.285C39.5332 114.285 39.4688 114.277 39.3867 114.262C39.3047 114.246 39.2207 114.227 39.1348 114.203C39.0488 114.18 38.9668 114.154 38.8887 114.127C38.8145 114.096 38.7598 114.064 38.7246 114.033C38.7598 114.182 38.791 114.332 38.8184 114.484C38.8457 114.633 38.8594 114.787 38.8594 114.947C38.8594 115.018 38.8496 115.104 38.8301 115.205C38.8145 115.307 38.791 115.41 38.7598 115.516C38.7324 115.617 38.7012 115.717 38.666 115.814C38.6309 115.908 38.5938 115.986 38.5547 116.049C38.4531 116.221 38.3477 116.377 38.2383 116.518C38.1328 116.658 38.0117 116.789 37.875 116.91C37.7422 117.027 37.5918 117.139 37.4238 117.244C37.2559 117.35 37.0625 117.451 36.8438 117.549C36.6094 117.65 36.373 117.723 36.1348 117.766C35.9004 117.805 35.6562 117.824 35.4023 117.824C35.2422 117.824 35.0996 117.777 34.9746 117.684C34.8496 117.59 34.7441 117.465 34.6582 117.309C34.5723 117.148 34.5059 116.965 34.459 116.758C34.416 116.551 34.3945 116.334 34.3945 116.107C34.3945 116.049 34.3984 115.977 34.4062 115.891C34.418 115.805 34.4316 115.717 34.4473 115.627C34.4668 115.537 34.4863 115.451 34.5059 115.369C34.5254 115.287 34.5449 115.217 34.5645 115.158C34.6191 114.994 34.6973 114.807 34.7988 114.596C34.9004 114.385 35.0195 114.17 35.1562 113.951C35.293 113.729 35.4453 113.512 35.6133 113.301C35.7812 113.086 35.957 112.895 36.1406 112.727C36.3242 112.559 36.5156 112.424 36.7148 112.322C36.9141 112.221 37.1133 112.17 37.3125 112.17C37.3789 112.17 37.4316 112.18 37.4707 112.199C37.5137 112.219 37.5488 112.244 37.5762 112.275C37.6074 112.307 37.6348 112.34 37.6582 112.375C37.6816 112.41 37.709 112.445 37.7402 112.48C37.752 112.5 37.7695 112.51 37.793 112.51C37.8242 112.51 37.8633 112.502 37.9102 112.486C37.957 112.471 38.0098 112.463 38.0684 112.463C38.1426 112.463 38.2344 112.512 38.3438 112.609C38.4531 112.703 38.5664 112.809 38.6836 112.926C38.8047 113.039 38.9238 113.145 39.041 113.242C39.1621 113.336 39.2695 113.383 39.3633 113.383C39.4688 113.383 39.582 113.381 39.7031 113.377C39.8242 113.373 39.9473 113.367 40.0723 113.359C40.1973 113.348 40.3203 113.334 40.4414 113.318C40.5625 113.303 40.6738 113.285 40.7754 113.266C40.8027 113.258 40.8672 113.24 40.9688 113.213C41.0703 113.186 41.1875 113.154 41.3203 113.119C41.457 113.08 41.5996 113.039 41.748 112.996C41.9004 112.953 42.041 112.914 42.1699 112.879C42.2988 112.84 42.4043 112.809 42.4863 112.785C42.5723 112.762 42.6191 112.75 42.627 112.75C42.6504 112.75 42.6719 112.756 42.6914 112.768C42.7109 112.779 42.7207 112.801 42.7207 112.832ZM38.1504 113.77C38.127 113.691 38.0801 113.615 38.0098 113.541C37.9434 113.467 37.8652 113.4 37.7754 113.342C37.6895 113.283 37.5977 113.236 37.5 113.201C37.4023 113.162 37.3105 113.143 37.2246 113.143C37.1543 113.143 37.0859 113.154 37.0195 113.178C36.9531 113.201 36.8867 113.232 36.8203 113.271C36.7578 113.307 36.6973 113.348 36.6387 113.395C36.5801 113.438 36.5254 113.479 36.4746 113.518C36.3223 113.646 36.1758 113.828 36.0352 114.062C35.8984 114.293 35.7773 114.543 35.6719 114.812C35.5703 115.078 35.4883 115.344 35.4258 115.609C35.3633 115.875 35.332 116.105 35.332 116.301C35.332 116.387 35.3457 116.471 35.373 116.553C35.4043 116.631 35.4473 116.701 35.502 116.764C35.5566 116.822 35.6211 116.871 35.6953 116.91C35.7695 116.945 35.8516 116.963 35.9414 116.963C36.1758 116.963 36.3926 116.922 36.5918 116.84C36.791 116.754 36.9707 116.639 37.1309 116.494C37.2949 116.346 37.4395 116.17 37.5645 115.967C37.6895 115.764 37.7949 115.545 37.8809 115.311C37.9668 115.072 38.0312 114.822 38.0742 114.561C38.1211 114.299 38.1465 114.035 38.1504 113.77ZM54.3516 115.58C54.3516 115.615 54.332 115.664 54.293 115.727C54.2578 115.785 54.2129 115.848 54.1582 115.914C54.1074 115.977 54.0488 116.037 53.9824 116.096C53.9199 116.154 53.8633 116.199 53.8125 116.23C53.4102 116.473 53.0352 116.66 52.6875 116.793C52.3438 116.922 51.9883 116.986 51.6211 116.986C51.4219 116.986 51.2441 116.947 51.0879 116.869C50.9355 116.791 50.8008 116.676 50.6836 116.523C50.5664 116.371 50.4629 116.184 50.373 115.961C50.2871 115.738 50.2109 115.482 50.1445 115.193C50.1094 115.037 50.0762 114.877 50.0449 114.713C50.0137 114.549 49.9805 114.4 49.9453 114.268C49.9102 114.131 49.8691 114.02 49.8223 113.934C49.7754 113.844 49.7168 113.799 49.6465 113.799C49.4824 113.799 49.2988 113.941 49.0957 114.227C48.8926 114.512 48.6309 114.936 48.3105 115.498C47.9941 116.061 47.7266 116.488 47.5078 116.781C47.2891 117.074 47.0898 117.221 46.9102 117.221C46.6406 117.221 46.459 117.094 46.3652 116.84C46.2793 116.582 46.2266 116.15 46.207 115.545C46.2031 115.307 46.1895 115.098 46.166 114.918C46.1426 114.734 46.1133 114.578 46.0781 114.449C46.043 114.32 46 114.215 45.9492 114.133C45.9023 114.047 45.8535 113.98 45.8027 113.934C45.6035 114.055 45.4121 114.213 45.2285 114.408C45.0488 114.604 44.8789 114.812 44.7188 115.035C44.5586 115.258 44.4082 115.482 44.2676 115.709C44.1309 115.936 44.0078 116.143 43.8984 116.33C43.8438 116.424 43.7812 116.531 43.7109 116.652C43.6406 116.773 43.5684 116.896 43.4941 117.021C43.4238 117.143 43.3535 117.258 43.2832 117.367C43.2168 117.477 43.1582 117.566 43.1074 117.637C42.9941 117.801 42.8574 117.883 42.6973 117.883C42.4004 117.883 42.2051 117.73 42.1113 117.426C42.0879 117.348 42.0684 117.277 42.0527 117.215C42.0371 117.152 42.0234 117.09 42.0117 117.027C42.0039 116.965 41.9961 116.898 41.9883 116.828C41.9844 116.754 41.9824 116.67 41.9824 116.576C41.9824 116.42 41.9902 116.254 42.0059 116.078C42.0215 115.902 42.041 115.725 42.0645 115.545C42.0918 115.365 42.1211 115.186 42.1523 115.006C42.1875 114.822 42.2207 114.645 42.252 114.473C42.3184 114.137 42.3711 113.832 42.4102 113.559C42.4492 113.285 42.4688 113.025 42.4688 112.779C42.4688 112.686 42.4961 112.607 42.5508 112.545C42.6055 112.479 42.6816 112.445 42.7793 112.445C43.1699 112.445 43.3652 112.713 43.3652 113.248C43.3652 113.389 43.3535 113.541 43.3301 113.705C43.3105 113.869 43.2832 114.041 43.248 114.221C43.2168 114.396 43.1816 114.576 43.1426 114.76C43.1035 114.939 43.0664 115.117 43.0312 115.293C43.0117 115.398 42.9922 115.512 42.9727 115.633C42.9531 115.75 42.9336 115.863 42.9141 115.973C42.8984 116.078 42.8848 116.174 42.873 116.26C42.8613 116.342 42.8555 116.402 42.8555 116.441C42.9062 116.391 42.9688 116.316 43.043 116.219C43.1211 116.121 43.2051 116.006 43.2949 115.873C43.3848 115.74 43.4805 115.594 43.582 115.434C43.6875 115.273 43.793 115.107 43.8984 114.936C44.1172 114.592 44.3203 114.289 44.5078 114.027C44.6992 113.762 44.877 113.535 45.041 113.348C45.3691 112.977 45.7227 112.791 46.1016 112.791C46.1953 112.791 46.2773 112.818 46.3477 112.873C46.418 112.928 46.4785 113 46.5293 113.09C46.5801 113.18 46.623 113.281 46.6582 113.395C46.6934 113.508 46.7227 113.623 46.7461 113.74C46.7852 113.939 46.8223 114.16 46.8574 114.402C46.8965 114.645 46.9336 114.871 46.9688 115.082C47.0078 115.293 47.0469 115.471 47.0859 115.615C47.1289 115.756 47.1777 115.826 47.2324 115.826C47.2754 115.826 47.3262 115.795 47.3848 115.732C47.4473 115.666 47.5098 115.584 47.5723 115.486C47.6387 115.385 47.7051 115.271 47.7715 115.146C47.8418 115.021 47.9082 114.9 47.9707 114.783C48.0332 114.662 48.0898 114.551 48.1406 114.449C48.1953 114.348 48.2383 114.268 48.2695 114.209C48.3555 114.057 48.4551 113.891 48.5684 113.711C48.6816 113.527 48.8027 113.357 48.9316 113.201C49.0645 113.041 49.207 112.908 49.3594 112.803C49.5117 112.697 49.6719 112.645 49.8398 112.645C50.0156 112.645 50.1523 112.686 50.25 112.768C50.3477 112.846 50.4277 112.965 50.4902 113.125C50.5566 113.281 50.6133 113.479 50.6602 113.717C50.7109 113.955 50.7734 114.232 50.8477 114.549C50.9688 115.064 51.0996 115.449 51.2402 115.703C51.3809 115.957 51.5664 116.084 51.7969 116.084C51.9414 116.084 52.0879 116.074 52.2363 116.055C52.3887 116.035 52.5469 116.004 52.7109 115.961C52.875 115.914 53.0469 115.854 53.2266 115.779C53.4102 115.701 53.6055 115.604 53.8125 115.486C53.8281 115.479 53.8516 115.467 53.8828 115.451C53.918 115.432 53.9531 115.414 53.9883 115.398C54.0273 115.379 54.0625 115.363 54.0938 115.352C54.125 115.34 54.1465 115.334 54.1582 115.334C54.1738 115.334 54.1914 115.342 54.2109 115.357C54.2344 115.373 54.2559 115.395 54.2754 115.422C54.2949 115.445 54.3125 115.473 54.3281 115.504C54.3438 115.531 54.3516 115.557 54.3516 115.58ZM61.1543 113.582C61.1543 113.645 61.1113 113.748 61.0254 113.893C60.8691 114.143 60.6738 114.412 60.4395 114.701C60.209 114.99 59.9512 115.281 59.666 115.574C59.3848 115.863 59.084 116.143 58.7637 116.412C58.4473 116.682 58.125 116.92 57.7969 117.127C57.4688 117.33 57.1445 117.494 56.8242 117.619C56.5039 117.744 56.1992 117.807 55.9102 117.807H55.8691C55.2012 117.807 54.7012 117.615 54.3691 117.232C54.0371 116.85 53.8711 116.316 53.8711 115.633C53.8711 115.359 53.8926 115.07 53.9355 114.766C53.9785 114.461 54.0527 114.152 54.1582 113.84C54.2676 113.523 54.4141 113.209 54.5977 112.896C54.7852 112.58 55.0215 112.275 55.3066 111.982C55.5215 111.768 55.748 111.604 55.9863 111.49C56.2246 111.373 56.4492 111.314 56.6602 111.314C56.6914 111.314 56.7324 111.322 56.7832 111.338C56.834 111.354 56.8848 111.375 56.9355 111.402C56.9902 111.426 57.041 111.457 57.0879 111.496C57.1387 111.531 57.1816 111.57 57.2168 111.613C57.3262 111.754 57.4062 111.889 57.457 112.018C57.5078 112.146 57.5332 112.297 57.5332 112.469C57.5332 112.695 57.502 112.902 57.4395 113.09C57.377 113.273 57.2871 113.453 57.1699 113.629C57.0527 113.805 56.9082 113.982 56.7363 114.162C56.5645 114.338 56.3672 114.529 56.1445 114.736C56.0703 114.807 55.9824 114.885 55.8809 114.971C55.7793 115.057 55.6699 115.146 55.5527 115.24C55.4355 115.334 55.3145 115.432 55.1895 115.533C55.0645 115.635 54.9414 115.734 54.8203 115.832C54.8516 116.531 55.2402 116.881 55.9863 116.881C56.4004 116.881 56.8418 116.771 57.3105 116.553C57.541 116.443 57.7559 116.318 57.9551 116.178C58.1543 116.033 58.3496 115.887 58.541 115.738C58.6348 115.664 58.7383 115.576 58.8516 115.475C58.9648 115.373 59.0801 115.266 59.1973 115.152C59.3184 115.039 59.4375 114.926 59.5547 114.812C59.6758 114.699 59.7891 114.592 59.8945 114.49C59.9609 114.424 60.0312 114.354 60.1055 114.279C60.1836 114.205 60.2656 114.125 60.3516 114.039L60.668 113.723C60.8594 113.555 60.998 113.471 61.084 113.471C61.1309 113.471 61.1543 113.508 61.1543 113.582ZM56.6426 112.703C56.6426 112.586 56.6113 112.484 56.5488 112.398C56.4863 112.309 56.4102 112.264 56.3203 112.264C56.2539 112.264 56.168 112.291 56.0625 112.346C55.9609 112.4 55.8516 112.498 55.7344 112.639C55.4961 112.928 55.293 113.277 55.125 113.688C54.957 114.094 54.8398 114.547 54.7734 115.047C55.0195 114.848 55.2266 114.67 55.3945 114.514C55.5664 114.357 55.7207 114.211 55.8574 114.074C55.9512 113.98 56.043 113.881 56.1328 113.775C56.2266 113.67 56.3105 113.559 56.3848 113.441C56.4629 113.324 56.5254 113.203 56.5723 113.078C56.6191 112.953 56.6426 112.828 56.6426 112.703ZM70.3418 113.811C70.3418 113.885 70.3281 113.961 70.3008 114.039C70.2773 114.113 70.2461 114.189 70.207 114.268C70.1719 114.342 70.1309 114.416 70.084 114.49C70.0371 114.561 69.9922 114.629 69.9492 114.695C69.8359 114.871 69.7031 115.051 69.5508 115.234C69.3984 115.414 69.2344 115.59 69.0586 115.762C68.8867 115.934 68.709 116.096 68.5254 116.248C68.3418 116.4 68.1621 116.535 67.9863 116.652C67.8457 116.746 67.7109 116.834 67.582 116.916C67.457 116.998 67.3301 117.068 67.2012 117.127C67.0723 117.186 66.9375 117.232 66.7969 117.268C66.6562 117.303 66.502 117.32 66.334 117.32C66.0098 117.32 65.7461 117.238 65.543 117.074C65.4414 116.992 65.3516 116.887 65.2734 116.758C65.1992 116.625 65.1328 116.479 65.0742 116.318C65.0195 116.158 64.9707 115.988 64.9277 115.809C64.8887 115.629 64.8555 115.451 64.8281 115.275C64.793 115.057 64.7598 114.861 64.7285 114.689C64.6973 114.514 64.6602 114.367 64.6172 114.25C64.5781 114.129 64.5293 114.037 64.4707 113.975C64.4121 113.908 64.3359 113.875 64.2422 113.875C64.168 113.875 64.0977 113.883 64.0312 113.898C63.9648 113.914 63.8945 113.945 63.8203 113.992C63.75 114.039 63.6719 114.105 63.5859 114.191C63.5 114.277 63.3984 114.391 63.2812 114.531C63.168 114.672 63.0371 114.844 62.8887 115.047C62.7402 115.25 62.5664 115.492 62.3672 115.773C62.2695 115.91 62.1543 116.061 62.0215 116.225C61.8887 116.389 61.752 116.545 61.6113 116.693C61.4746 116.842 61.3398 116.973 61.207 117.086C61.0742 117.199 60.957 117.271 60.8555 117.303C60.5117 117.229 60.3398 116.801 60.3398 116.02C60.3398 115.812 60.3633 115.498 60.4102 115.076C60.4336 114.885 60.4609 114.686 60.4922 114.479C60.5234 114.268 60.5625 114.059 60.6094 113.852C60.6562 113.641 60.709 113.438 60.7676 113.242C60.8301 113.043 60.9023 112.859 60.9844 112.691C61.0234 112.613 61.0645 112.553 61.1074 112.51C61.1504 112.463 61.1934 112.43 61.2363 112.41C61.2832 112.387 61.3301 112.373 61.377 112.369C61.4277 112.361 61.4785 112.357 61.5293 112.357C61.5918 112.357 61.6465 112.4 61.6934 112.486C61.7441 112.572 61.7695 112.691 61.7695 112.844C61.7695 112.938 61.7617 113.025 61.7461 113.107C61.7305 113.189 61.709 113.273 61.6816 113.359C61.6543 113.445 61.625 113.539 61.5938 113.641C61.5625 113.738 61.5312 113.852 61.5 113.98C61.4766 114.086 61.4492 114.203 61.418 114.332C61.3906 114.461 61.3633 114.592 61.3359 114.725C61.3125 114.857 61.291 114.988 61.2715 115.117C61.2559 115.242 61.248 115.355 61.248 115.457C61.248 115.527 61.2598 115.6 61.2832 115.674C61.3926 115.662 61.5723 115.498 61.8223 115.182C61.9512 115.021 62.0918 114.846 62.2441 114.654C62.4004 114.463 62.5684 114.252 62.748 114.021C62.8809 113.85 63.0117 113.689 63.1406 113.541C63.2734 113.393 63.4102 113.264 63.5508 113.154C63.6914 113.041 63.8398 112.953 63.9961 112.891C64.1562 112.824 64.332 112.791 64.5234 112.791C64.7266 112.791 64.8945 112.836 65.0273 112.926C65.1641 113.012 65.2734 113.133 65.3555 113.289C65.4375 113.441 65.5 113.625 65.543 113.84C65.5898 114.055 65.627 114.291 65.6543 114.549C65.6777 114.768 65.6992 114.984 65.7188 115.199C65.7422 115.414 65.7852 115.607 65.8477 115.779C65.9102 115.947 66 116.084 66.1172 116.189C66.2344 116.295 66.4023 116.348 66.6211 116.348C66.7891 116.348 66.9648 116.309 67.1484 116.23C67.332 116.152 67.5254 116.045 67.7285 115.908C67.9316 115.768 68.1406 115.604 68.3555 115.416C68.5742 115.229 68.7988 115.023 69.0293 114.801C69.1191 114.715 69.2168 114.607 69.3223 114.479C69.4316 114.346 69.5371 114.219 69.6387 114.098C69.7441 113.977 69.8418 113.873 69.9316 113.787C70.0215 113.701 70.0938 113.658 70.1484 113.658C70.1719 113.658 70.209 113.67 70.2598 113.693C70.3145 113.717 70.3418 113.756 70.3418 113.811ZM75.498 112.838C75.498 112.982 75.459 113.094 75.3809 113.172C75.3027 113.246 75.2129 113.312 75.1113 113.371C74.9824 113.43 74.8379 113.482 74.6777 113.529C74.5215 113.576 74.3594 113.619 74.1914 113.658C74.0273 113.693 73.8613 113.725 73.6934 113.752C73.5254 113.775 73.3652 113.795 73.2129 113.811C73.0488 113.826 72.875 113.842 72.6914 113.857C72.5078 113.873 72.3301 113.891 72.1582 113.91C71.9863 113.926 71.8262 113.945 71.6777 113.969C71.5332 113.992 71.416 114.021 71.3262 114.057C71.2441 114.412 71.1562 114.752 71.0625 115.076C70.9727 115.396 70.8965 115.717 70.834 116.037C70.8184 116.111 70.7969 116.223 70.7695 116.371C70.7461 116.52 70.7227 116.676 70.6992 116.84C70.6758 117 70.6543 117.152 70.6348 117.297C70.6191 117.438 70.6113 117.539 70.6113 117.602C70.6113 117.762 70.6367 117.883 70.6875 117.965C70.7383 118.043 70.793 118.105 70.8516 118.152C70.9141 118.203 70.9707 118.25 71.0215 118.293C71.0723 118.336 71.0977 118.4 71.0977 118.486C71.0977 118.541 71.0703 118.594 71.0156 118.645C70.9648 118.695 70.9023 118.74 70.8281 118.779C70.7539 118.818 70.6738 118.848 70.5879 118.867C70.5059 118.891 70.4336 118.902 70.3711 118.902C70.2578 118.902 70.1562 118.871 70.0664 118.809C69.9766 118.746 69.9004 118.664 69.8379 118.562C69.7754 118.465 69.7266 118.352 69.6914 118.223C69.6562 118.094 69.6387 117.961 69.6387 117.824C69.6387 117.645 69.6543 117.453 69.6855 117.25C69.7168 117.043 69.7559 116.832 69.8027 116.617C69.8496 116.402 69.8984 116.184 69.9492 115.961C70.0039 115.734 70.0547 115.51 70.1016 115.287C70.1211 115.193 70.1406 115.098 70.1602 115C70.1836 114.898 70.2031 114.805 70.2188 114.719C70.2383 114.629 70.2539 114.555 70.2656 114.496C70.2773 114.438 70.2832 114.402 70.2832 114.391C70.2832 114.328 70.2598 114.281 70.2129 114.25C70.1699 114.215 70.1172 114.197 70.0547 114.197C70.0078 114.197 69.9375 114.201 69.8438 114.209C69.75 114.217 69.6504 114.227 69.5449 114.238C69.4434 114.25 69.3457 114.26 69.252 114.268C69.1582 114.275 69.0898 114.279 69.0469 114.279C68.9062 114.279 68.7871 114.271 68.6895 114.256C68.5918 114.236 68.5117 114.203 68.4492 114.156C68.3906 114.109 68.3477 114.045 68.3203 113.963C68.2891 113.877 68.2734 113.768 68.2734 113.635C68.2734 113.58 68.2988 113.537 68.3496 113.506C68.4004 113.475 68.4609 113.453 68.5312 113.441C68.6055 113.426 68.6836 113.418 68.7656 113.418C68.8477 113.414 68.9199 113.412 68.9824 113.412C69.0332 113.412 69.1152 113.408 69.2285 113.4C69.3457 113.389 69.4668 113.377 69.5918 113.365C69.7207 113.354 69.8418 113.344 69.9551 113.336C70.0723 113.324 70.1562 113.318 70.207 113.318C70.2305 113.318 70.2578 113.316 70.2891 113.312C70.3203 113.309 70.3516 113.299 70.3828 113.283C70.418 113.264 70.4492 113.234 70.4766 113.195C70.5039 113.152 70.5273 113.094 70.5469 113.02C70.5742 112.898 70.6074 112.758 70.6465 112.598C70.6855 112.434 70.7246 112.268 70.7637 112.1C70.8066 111.928 70.8477 111.764 70.8867 111.607C70.9258 111.447 70.959 111.311 70.9863 111.197C71.0215 111.088 71.0508 110.971 71.0742 110.846C71.1016 110.721 71.125 110.596 71.1445 110.471C71.168 110.346 71.1934 110.225 71.2207 110.107C71.248 109.99 71.2832 109.883 71.3262 109.785C71.4121 109.582 71.5508 109.48 71.7422 109.48C72.0312 109.48 72.1758 109.641 72.1758 109.961C72.1758 110.16 72.1328 110.389 72.0469 110.646C71.8594 111.24 71.7207 111.73 71.6309 112.117C71.541 112.5 71.4961 112.758 71.4961 112.891C71.4961 113.035 71.5684 113.107 71.7129 113.107C71.8887 113.107 72.0527 113.105 72.2051 113.102C72.3613 113.094 72.5176 113.084 72.6738 113.072C72.834 113.057 73.002 113.039 73.1777 113.02C73.3535 113 73.5508 112.979 73.7695 112.955C73.9258 112.936 74.0742 112.912 74.2148 112.885C74.3594 112.857 74.4922 112.832 74.6133 112.809C74.7344 112.781 74.8418 112.756 74.9355 112.732C75.0293 112.709 75.1074 112.693 75.1699 112.686C75.2129 112.682 75.2539 112.676 75.293 112.668C75.3359 112.66 75.3711 112.66 75.3984 112.668C75.4297 112.672 75.4531 112.688 75.4688 112.715C75.4883 112.738 75.498 112.779 75.498 112.838ZM77.1914 116.729C77.1914 116.928 77.1562 117.123 77.0859 117.314C77.0156 117.502 76.9199 117.68 76.7988 117.848C76.6816 118.016 76.5449 118.17 76.3887 118.311C76.2363 118.455 76.0762 118.578 75.9082 118.68C75.7441 118.785 75.5781 118.865 75.4102 118.92C75.2422 118.979 75.0879 119.008 74.9473 119.008C74.752 119.008 74.623 118.965 74.5605 118.879C74.498 118.793 74.4668 118.672 74.4668 118.516C74.4668 118.371 74.4941 118.26 74.5488 118.182C74.6035 118.107 74.6816 118.043 74.7832 117.988C74.7949 117.984 74.8164 117.98 74.8477 117.977C74.8789 117.969 74.9121 117.965 74.9473 117.965C74.9863 117.961 75.0234 117.959 75.0586 117.959C75.0977 117.955 75.1289 117.953 75.1523 117.953C75.1797 117.953 75.2188 117.947 75.2695 117.936C75.3203 117.924 75.375 117.908 75.4336 117.889C75.4922 117.865 75.5527 117.838 75.6152 117.807C75.6777 117.771 75.7363 117.732 75.791 117.689C75.9473 117.564 76.0566 117.426 76.1191 117.273C76.1855 117.117 76.2188 116.979 76.2188 116.857C76.2188 116.705 76.1699 116.562 76.0723 116.43C75.9746 116.297 75.8516 116.168 75.7031 116.043C75.5547 115.914 75.3945 115.787 75.2227 115.662C75.0508 115.533 74.8906 115.398 74.7422 115.258C74.5938 115.113 74.4707 114.961 74.373 114.801C74.2754 114.641 74.2266 114.463 74.2266 114.268C74.2266 114.17 74.2383 114.066 74.2617 113.957C74.2891 113.848 74.3223 113.74 74.3613 113.635C74.4043 113.529 74.4512 113.428 74.502 113.33C74.5566 113.229 74.6133 113.137 74.6719 113.055C74.7656 112.922 74.8672 112.791 74.9766 112.662C75.0898 112.533 75.2031 112.42 75.3164 112.322C75.4297 112.221 75.541 112.141 75.6504 112.082C75.7598 112.02 75.8613 111.988 75.9551 111.988C76.2207 111.988 76.3535 112.145 76.3535 112.457C76.3535 112.566 76.3086 112.693 76.2188 112.838C76.1328 112.982 76.0293 113.115 75.9082 113.236C75.7207 113.416 75.5566 113.57 75.416 113.699C75.2754 113.824 75.1445 113.953 75.0234 114.086C75.1133 114.219 75.2109 114.34 75.3164 114.449C75.4219 114.559 75.5312 114.664 75.6445 114.766C75.7617 114.867 75.8789 114.967 75.9961 115.064C76.1172 115.162 76.2363 115.264 76.3535 115.369C76.4629 115.471 76.5664 115.574 76.6641 115.68C76.7656 115.781 76.8555 115.889 76.9336 116.002C77.0117 116.111 77.0742 116.227 77.1211 116.348C77.168 116.469 77.1914 116.596 77.1914 116.729Z" fill="black"/>
</svg>
