<svg width="24" height="24" viewBox="0 0 24 24" fill="none" xmlns="http://www.w3.org/2000/svg">
<path d="M9.28505 18.2446H3.80089C3.501 18.2446 3.2579 18.4877 3.2579 18.7876C3.2579 19.0875 3.501 19.3306 3.80089 19.3306H9.28505C9.58494 19.3306 9.82804 19.0875 9.82804 18.7876C9.82804 18.4877 9.58494 18.2446 9.28505 18.2446Z" fill="#FFA03F"/>
<path d="M17.4841 18.2446H12C11.7001 18.2446 11.457 18.4877 11.457 18.7876C11.457 19.0875 11.7001 19.3306 12 19.3306H17.4841C17.784 19.3306 18.0271 19.0875 18.0271 18.7876C18.0271 18.4877 17.784 18.2446 17.4841 18.2446Z" fill="#FFA03F"/>
<path d="M17.4841 4.66992H3.80089C3.501 4.66992 3.2579 4.91302 3.2579 5.21291C3.2579 5.5128 3.501 5.75589 3.80089 5.75589H17.4841C17.784 5.75589 18.0271 5.5128 18.0271 5.21291C18.0271 4.91302 17.784 4.66992 17.4841 4.66992Z" fill="#FFA03F"/>
<path d="M17.4841 7.38428H12C11.7001 7.38428 11.457 7.62737 11.457 7.92726C11.457 8.22716 11.7001 8.47025 12 8.47025H17.4841C17.784 8.47025 18.0271 8.22716 18.0271 7.92726C18.0271 7.62737 17.784 7.38428 17.4841 7.38428Z" fill="#FFA03F"/>
<path d="M17.4841 10.0996H12C11.7001 10.0996 11.457 10.3427 11.457 10.6426C11.457 10.9425 11.7001 11.1856 12 11.1856H17.4841C17.784 11.1856 18.0271 10.9425 18.0271 10.6426C18.0271 10.3427 17.784 10.0996 17.4841 10.0996Z" fill="#FFA03F"/>
<path d="M17.4841 12.8145H12C11.7001 12.8145 11.457 13.0575 11.457 13.3574C11.457 13.6573 11.7001 13.9004 12 13.9004H17.4841C17.784 13.9004 18.0271 13.6573 18.0271 13.3574C18.0271 13.0575 17.784 12.8145 17.4841 12.8145Z" fill="#FFA03F"/>
<path d="M17.4841 15.5293H12C11.7001 15.5293 11.457 15.7724 11.457 16.0723C11.457 16.3722 11.7001 16.6153 12 16.6153H17.4841C17.784 16.6153 18.0271 16.3722 18.0271 16.0723C18.0271 15.7724 17.784 15.5293 17.4841 15.5293Z" fill="#FFA03F"/>
<path d="M9.28505 15.5293H3.80089C3.501 15.5293 3.2579 15.7724 3.2579 16.0723C3.2579 16.3722 3.501 16.6153 3.80089 16.6153H9.28505C9.58494 16.6153 9.82804 16.3722 9.82804 16.0723C9.82804 15.7724 9.58494 15.5293 9.28505 15.5293Z" fill="#FFA03F"/>
<path d="M9.28505 7.38428H3.80089C3.501 7.38428 3.2579 7.62737 3.2579 7.92726V13.4114C3.2579 13.7113 3.501 13.9544 3.80089 13.9544H9.28505C9.58494 13.9544 9.82804 13.7113 9.82804 13.4114V7.92726C9.82804 7.62737 9.58494 7.38428 9.28505 7.38428ZM8.74207 12.8684H4.34388V8.47025H8.74207V12.8684Z" fill="#FFA03F"/>
<path d="M22.914 4.12655H21.2851V2.49759C21.2851 1.89879 20.7979 1.41162 20.1991 1.41162H1.08597C0.487167 1.41162 0 1.89879 0 2.49759V19.8732C0 21.3702 1.21792 22.5881 2.71493 22.5881H21.2851C22.7821 22.5881 24 21.3702 24 19.8732V5.21253C24 4.61372 23.5128 4.12655 22.914 4.12655ZM22.914 19.8732C22.914 20.7714 22.1833 21.5021 21.2851 21.5021H2.71493C1.81672 21.5021 1.08597 20.7714 1.08597 19.8732V2.49759H20.1991V19.0587C20.1991 19.8072 20.8081 20.4161 21.5566 20.4161C21.8564 20.4161 22.0995 20.1731 22.0995 19.8732C22.0995 19.5733 21.8564 19.3302 21.5566 19.3302C21.4069 19.3302 21.2851 19.2084 21.2851 19.0587V5.21253H22.914V19.8732Z" fill="#FFA03F"/>
</svg>
