<svg width="12" height="12" viewBox="0 0 12 12" fill="none" xmlns="http://www.w3.org/2000/svg">
<path fill-rule="evenodd" clip-rule="evenodd" d="M8.25947 1.07009C8.77202 0.557527 9.60302 0.557529 10.1156 1.07009L10.9299 1.88443C11.4425 2.39699 11.4425 3.22802 10.9299 3.74059L4.47269 10.1978C4.31496 10.3556 4.11965 10.4705 3.90518 10.5317L1.46705 11.2283C1.27062 11.2845 1.05922 11.2297 0.914769 11.0852C0.770319 10.9408 0.715537 10.7294 0.771654 10.533L1.46827 8.09483C1.52954 7.88041 1.64447 7.68503 1.80219 7.52731L8.25947 1.07009ZM9.32012 1.86559C9.24685 1.79236 9.12812 1.79236 9.05492 1.86559L8.10797 2.81251L9.18752 3.89201L10.1345 2.94509C10.2077 2.87187 10.2077 2.75315 10.1345 2.67993L9.32012 1.86559ZM8.392 4.68751L7.31252 3.608L2.59769 8.32283C2.57516 8.34533 2.55874 8.37323 2.54998 8.40391L2.13152 9.86851L3.59612 9.45001C3.62675 9.44131 3.65465 9.42488 3.67719 9.40231L8.392 4.68751Z" fill="#fff"/>
</svg>
