<svg width="27" height="27" viewBox="0 0 27 27" fill="none" xmlns="http://www.w3.org/2000/svg">
<path fill-rule="evenodd" clip-rule="evenodd" d="M13.5415 0.25C14.3009 0.25 14.9165 0.865609 14.9165 1.625V12.1667H25.4583C26.2177 12.1667 26.8333 12.7823 26.8333 13.5417C26.8333 14.3011 26.2177 14.9167 25.4583 14.9167H14.9165V25.4583C14.9165 26.2177 14.3009 26.8333 13.5415 26.8333C12.7821 26.8333 12.1665 26.2177 12.1665 25.4583V14.9167H1.625C0.865609 14.9167 0.25 14.3011 0.25 13.5417C0.25 12.7823 0.865609 12.1667 1.625 12.1667H12.1665V1.625C12.1665 0.865609 12.7821 0.25 13.5415 0.25Z" fill="white"/>
</svg>
