<svg width="20" height="9" viewBox="0 0 20 9" fill="none" xmlns="http://www.w3.org/2000/svg">
<path d="M13 9.00005C12.1478 9.00005 11.7026 8.01454 12.2168 7.37752L12.2929 7.29294L14.584 5.00071C13.3147 3.7976 11.3017 3.00005 9 3.00005C5.08172 3.00005 2 5.31134 2 8.00005C2 8.55234 1.55228 9.00005 1 9.00005C0.447715 9.00005 0 8.55234 0 8.00005C0 4.06134 4.08172 1.00005 9 1.00005C11.8067 1.00005 14.341 1.99699 15.9997 3.58501L18.2929 1.29294C18.8955 0.69037 19.9072 1.07238 19.994 1.88642L20 2.00005V8.00005C20 8.51289 19.614 8.93556 19.1166 8.99332L19 9.00005H13Z" fill="#C4C4C4"/>
</svg>
