<svg width="24" height="24" viewBox="0 0 24 24" fill="none" xmlns="http://www.w3.org/2000/svg">
<path fill-rule="evenodd" clip-rule="evenodd" d="M17.25 10.5C17.25 11.3864 17.0754 12.2642 16.7361 13.0831C16.3969 13.9021 15.8997 14.6462 15.273 15.273C14.6461 15.8997 13.902 16.397 13.0831 16.7363C12.2641 17.0754 11.3864 17.25 10.5 17.25C9.61355 17.25 8.73581 17.0754 7.91685 16.7363C7.09792 16.397 6.3538 15.8997 5.72701 15.273C5.1002 14.6462 4.60301 13.9021 4.26378 13.0831C3.92456 12.2642 3.74997 11.3864 3.74997 10.5C3.74997 8.70979 4.46112 6.9929 5.72701 5.72704C6.99287 4.46116 8.70975 3.75001 10.5 3.75001C12.2902 3.75001 14.0071 4.46116 15.273 5.72704C16.5388 6.9929 17.25 8.70979 17.25 10.5ZM16.02 17.61C14.2115 19.014 11.936 19.676 9.65667 19.4612C7.37732 19.2465 5.26548 18.1712 3.7511 16.4541C2.2367 14.7371 1.4336 12.5074 1.50527 10.2191C1.57695 7.93081 2.51802 5.75581 4.1369 4.13693C5.75579 2.51806 7.93077 1.57699 10.2191 1.5053C12.5074 1.43363 14.737 2.23673 16.4541 3.75113C18.1711 5.26552 19.2465 7.37735 19.4611 9.6567C19.6759 11.936 19.014 14.2116 17.61 16.02L22.17 20.58C22.2805 20.6831 22.3692 20.8073 22.4307 20.9453C22.4922 21.0833 22.5252 21.2322 22.5279 21.3833C22.5306 21.5343 22.5027 21.6843 22.4461 21.8244C22.3896 21.9645 22.3053 22.0917 22.1985 22.1985C22.0917 22.3055 21.9645 22.3896 21.8244 22.4462C21.6843 22.5027 21.5343 22.5306 21.3832 22.5279C21.2322 22.5252 21.0831 22.4922 20.9452 22.4307C20.8072 22.3692 20.683 22.2806 20.58 22.17L16.02 17.61Z" fill="#24292E"/>
</svg>
