<svg width="20" height="9" viewBox="0 0 20 9" fill="none" xmlns="http://www.w3.org/2000/svg">
<path d="M7 9.00005C7.85217 9.00005 8.29743 8.01454 7.78323 7.37752L7.70711 7.29294L5.41603 5.00071C6.68529 3.7976 8.69831 3.00005 11 3.00005C14.9183 3.00005 18 5.31134 18 8.00005C18 8.55234 18.4477 9.00005 19 9.00005C19.5523 9.00005 20 8.55234 20 8.00005C20 4.06134 15.9183 1.00005 11 1.00005C8.19331 1.00005 5.65905 1.99699 4.00031 3.58501L1.70711 1.29294C1.10453 0.69037 0.0928192 1.07238 0.00598327 1.88642L0 2.00005V8.00005C0 8.51289 0.38604 8.93556 0.883379 8.99332L1 9.00005H7Z" fill="black"/>
</svg>
