<svg width="16" height="16" viewBox="0 0 16 16" fill="none" xmlns="http://www.w3.org/2000/svg">
<path d="M9 14.5C9 13.6716 8.32843 13 7.5 13C6.67157 13 6 13.6716 6 14.5C6 15.3284 6.67157 16 7.5 16C8.32843 16 9 15.3284 9 14.5Z" fill="#24292E"/>
<path d="M9 8C9 7.17157 8.32843 6.5 7.5 6.5C6.67157 6.5 6 7.17157 6 8C6 8.82843 6.67157 9.5 7.5 9.5C8.32843 9.5 9 8.82843 9 8Z" fill="#24292E"/>
<path d="M7.5 0C8.32843 0 9 0.6716 9 1.5C9 2.3284 8.32843 3 7.5 3C6.67157 3 6 2.3284 6 1.5C6 0.6716 6.67157 0 7.5 0Z" fill="#24292E"/>
</svg>
